<svg xmlns="http://www.w3.org/2000/svg" width="1078.76" height="1035" viewBox="0 0 1078.76 1035">
  <g id="Group_404" data-name="Group 404" transform="translate(-281.834)">
    <g id="Group_403" data-name="Group 403" transform="translate(568.189)">
      <path id="Path_905" data-name="Path 905" d="M-11703.607,4640.519V4349.228" transform="translate(11703.607 -4349.228)" fill="none" stroke="#707070" stroke-width="1"/>
      <path id="Path_906" data-name="Path 906" d="M-11310.1,4629.093v-286.01" transform="translate(11578.662 -4343.083)" fill="none" stroke="#707070" stroke-width="1"/>
      <path id="Path_907" data-name="Path 907" d="M-10774.65,4633.064V4355.816" transform="translate(11400.694 -4355.816)" fill="none" stroke="#707070" stroke-width="1"/>
      <path id="Path_908" data-name="Path 908" d="M-11703.607,4446.43v-97.2" transform="translate(11816.826 -4349.228)" fill="none" stroke="#707070" stroke-width="1"/>
      <path id="Path_909" data-name="Path 909" d="M-11310.1,4504.418V4343.083" transform="translate(11752.533 -4343.083)" fill="none" stroke="#707070" stroke-width="1"/>
    </g>
    <g id="Group_18" data-name="Group 18" transform="translate(513.483 974.081) rotate(163)">
      <path id="Exclusion_1" data-name="Exclusion 1" d="M42.183,128.163a41.994,41.994,0,0,1-23.585-7.2A42.295,42.295,0,0,1,3.315,102.409,42.18,42.18,0,0,1,35.208,44.4V0H49.159V44.4a41.811,41.811,0,0,1,13.929,4.96,42.165,42.165,0,0,1-20.905,78.8Zm.333-19.258a5.977,5.977,0,1,0,5.978,5.977A5.985,5.985,0,0,0,42.516,108.905Zm24.58-8.633a5.976,5.976,0,1,0,5.979,5.976A5.985,5.985,0,0,0,67.1,100.273Zm-45.838,0a5.976,5.976,0,1,0,5.979,5.976A5.984,5.984,0,0,0,21.258,100.273ZM51.817,88.984A5.977,5.977,0,1,0,57.8,94.96,5.984,5.984,0,0,0,51.817,88.984Zm-17.936,0a5.977,5.977,0,1,0,5.979,5.976A5.985,5.985,0,0,0,33.88,88.984Zm37.865-9.3a5.977,5.977,0,1,0,5.979,5.977A5.985,5.985,0,0,0,71.746,79.687Zm-59.124,0A5.977,5.977,0,1,0,18.6,85.664,5.984,5.984,0,0,0,12.622,79.687Zm39.195-8.632A5.977,5.977,0,1,0,57.8,77.031,5.984,5.984,0,0,0,51.817,71.055Zm-17.936,0a5.977,5.977,0,1,0,5.979,5.976A5.985,5.985,0,0,0,33.88,71.055ZM67.1,60.429a5.977,5.977,0,1,0,5.979,5.977A5.985,5.985,0,0,0,67.1,60.429Zm-45.838,0a5.977,5.977,0,1,0,5.979,5.977A5.985,5.985,0,0,0,21.258,60.429ZM42.516,49.8a5.977,5.977,0,1,0,5.978,5.977A5.985,5.985,0,0,0,42.516,49.8Z" transform="translate(0 103.336)" fill="#434343"/>
      <path id="Exclusion_2" data-name="Exclusion 2" d="M16.346,113.458H16.3a10.4,10.4,0,0,1-3.9-.689,6.413,6.413,0,0,1-2.236-1.493A5,5,0,0,1,8.9,109.111c-.09-.851-8.966-85.24-8.9-94.183A24.117,24.117,0,0,1,.712,8.784a10.968,10.968,0,0,1,2.5-4.708A11.283,11.283,0,0,1,8.174,1.062,26.442,26.442,0,0,1,16.3,0C22.848,0,26.78,1.084,29.044,3.514a9.984,9.984,0,0,1,2.293,4.638,32.61,32.61,0,0,1,.684,6.777c.06,3-.626,14.3-4.235,51.042-2.119,21.58-4.3,42.264-4.391,43.134v.007a4.612,4.612,0,0,1-1.1,2.173,5.776,5.776,0,0,1-2.12,1.494A9.841,9.841,0,0,1,16.346,113.458Zm-.061-103.43a7.971,7.971,0,1,0,5.636,2.335A7.917,7.917,0,0,0,16.285,10.028Z" transform="translate(25.892 0)" fill="#1b5f88"/>
      <path id="Exclusion_7" data-name="Exclusion 7" d="M42.183,128.163a41.994,41.994,0,0,1-23.585-7.2A42.295,42.295,0,0,1,3.315,102.409,42.18,42.18,0,0,1,35.208,44.4V0H49.159V44.4a41.811,41.811,0,0,1,13.929,4.96,42.165,42.165,0,0,1-20.905,78.8Zm.333-19.258a5.977,5.977,0,1,0,5.978,5.977A5.985,5.985,0,0,0,42.516,108.905Zm24.58-8.633a5.976,5.976,0,1,0,5.979,5.976A5.985,5.985,0,0,0,67.1,100.273Zm-45.838,0a5.976,5.976,0,1,0,5.979,5.976A5.984,5.984,0,0,0,21.258,100.273ZM51.817,88.984A5.977,5.977,0,1,0,57.8,94.96,5.984,5.984,0,0,0,51.817,88.984Zm-17.936,0a5.977,5.977,0,1,0,5.979,5.976A5.985,5.985,0,0,0,33.88,88.984Zm37.865-9.3a5.977,5.977,0,1,0,5.979,5.977A5.985,5.985,0,0,0,71.746,79.687Zm-59.124,0A5.977,5.977,0,1,0,18.6,85.664,5.984,5.984,0,0,0,12.622,79.687Zm39.195-8.632A5.977,5.977,0,1,0,57.8,77.031,5.984,5.984,0,0,0,51.817,71.055Zm-17.936,0a5.977,5.977,0,1,0,5.979,5.976A5.985,5.985,0,0,0,33.88,71.055ZM67.1,60.429a5.977,5.977,0,1,0,5.979,5.977A5.985,5.985,0,0,0,67.1,60.429Zm-45.838,0a5.977,5.977,0,1,0,5.979,5.977A5.985,5.985,0,0,0,21.258,60.429ZM42.516,49.8a5.977,5.977,0,1,0,5.978,5.977A5.985,5.985,0,0,0,42.516,49.8Z" transform="translate(0 103.336)" fill="#434343"/>
      <path id="Exclusion_8" data-name="Exclusion 8" d="M16.346,113.458H16.3a10.4,10.4,0,0,1-3.9-.689,6.413,6.413,0,0,1-2.236-1.493A5,5,0,0,1,8.9,109.111c-.09-.851-8.966-85.24-8.9-94.183A24.117,24.117,0,0,1,.712,8.784a10.968,10.968,0,0,1,2.5-4.708A11.283,11.283,0,0,1,8.174,1.062,26.442,26.442,0,0,1,16.3,0C22.848,0,26.78,1.084,29.044,3.514a9.984,9.984,0,0,1,2.293,4.638,32.61,32.61,0,0,1,.684,6.777c.06,3-.626,14.3-4.235,51.042-2.119,21.58-4.3,42.264-4.391,43.134v.007a4.612,4.612,0,0,1-1.1,2.173,5.776,5.776,0,0,1-2.12,1.494A9.841,9.841,0,0,1,16.346,113.458Zm-.061-103.43a7.971,7.971,0,1,0,5.636,2.335A7.917,7.917,0,0,0,16.285,10.028Z" transform="translate(25.892 0)" fill="#19807a"/>
    </g>
    <g id="Group_19" data-name="Group 19" transform="translate(640.417 97.198)">
      <path id="Union_2" data-name="Union 2" d="M26.617,130.744c-11,0-25.931-1.856-26.5-19.159s.816-27.9,7.73-43.837,8.921-19.926,19.926-19.926h5.978V0H47.7V47.823h5.978c11,0,12.941,3.985,19.926,19.926s8.582,26.208,8.014,43.837-15.463,19.159-26.468,19.159Z" transform="translate(0 100.027)" fill="#434343"/>
      <path id="Exclusion_3" data-name="Exclusion 3" d="M16.346,113.458H16.3a10.4,10.4,0,0,1-3.9-.689,6.413,6.413,0,0,1-2.236-1.493A5,5,0,0,1,8.9,109.111c-.09-.851-8.966-85.24-8.9-94.183A24.117,24.117,0,0,1,.712,8.784a10.968,10.968,0,0,1,2.5-4.708A11.283,11.283,0,0,1,8.174,1.062,26.442,26.442,0,0,1,16.3,0C22.848,0,26.78,1.084,29.044,3.514a9.984,9.984,0,0,1,2.293,4.638,32.61,32.61,0,0,1,.684,6.777c.06,3-.626,14.3-4.235,51.042-2.119,21.58-4.3,42.264-4.391,43.134v.007a4.612,4.612,0,0,1-1.1,2.173,5.776,5.776,0,0,1-2.12,1.494A9.841,9.841,0,0,1,16.346,113.458Zm-.061-103.43a7.971,7.971,0,1,0,5.636,2.335A7.917,7.917,0,0,0,16.285,10.028Z" transform="translate(24.438 0)" fill="#e9ad2f"/>
      <path id="Union_6" data-name="Union 6" d="M26.617,130.744c-11,0-25.931-1.856-26.5-19.159s.816-27.9,7.73-43.837,8.921-19.926,19.926-19.926h5.978V0H47.7V47.823h5.978c11,0,12.941,3.985,19.926,19.926s8.582,26.208,8.014,43.837-15.463,19.159-26.468,19.159Z" transform="translate(0 100.027)" fill="#434343"/>
      <path id="Exclusion_9" data-name="Exclusion 9" d="M16.346,113.458H16.3a10.4,10.4,0,0,1-3.9-.689,6.413,6.413,0,0,1-2.236-1.493A5,5,0,0,1,8.9,109.111c-.09-.851-8.966-85.24-8.9-94.183A24.117,24.117,0,0,1,.712,8.784a10.968,10.968,0,0,1,2.5-4.708A11.283,11.283,0,0,1,8.174,1.062,26.442,26.442,0,0,1,16.3,0C22.848,0,26.78,1.084,29.044,3.514a9.984,9.984,0,0,1,2.293,4.638,32.61,32.61,0,0,1,.684,6.777c.06,3-.626,14.3-4.235,51.042-2.119,21.58-4.3,42.264-4.391,43.134v.007a4.612,4.612,0,0,1-1.1,2.173,5.776,5.776,0,0,1-2.12,1.494A9.841,9.841,0,0,1,16.346,113.458Zm-.061-103.43a7.971,7.971,0,1,0,5.636,2.335A7.917,7.917,0,0,0,16.285,10.028Z" transform="translate(24.438 0)" fill="#ffcb00"/>
    </g>
    <g id="Group_20" data-name="Group 20" transform="translate(981.028 161.552)">
      <path id="Union_3" data-name="Union 3" d="M0,80.306c0-18.528,9.629-34.06,22.583-38.2V0H36.531V42.163C49.4,46.375,58.953,61.855,58.953,80.306c0,21.691-13.2,51.206-29.477,51.206S0,102,0,80.306Z" transform="translate(0 100.027)" fill="#434343"/>
      <path id="Exclusion_4" data-name="Exclusion 4" d="M16.346,113.458H16.3a10.4,10.4,0,0,1-3.9-.689,6.413,6.413,0,0,1-2.236-1.493A5,5,0,0,1,8.9,109.111c-.09-.851-8.966-85.24-8.9-94.183A24.117,24.117,0,0,1,.712,8.784a10.968,10.968,0,0,1,2.5-4.708A11.283,11.283,0,0,1,8.174,1.062,26.442,26.442,0,0,1,16.3,0C22.848,0,26.78,1.084,29.044,3.514a9.984,9.984,0,0,1,2.293,4.638,32.609,32.609,0,0,1,.684,6.777c.06,3-.626,14.3-4.235,51.042-2.119,21.58-4.3,42.264-4.391,43.134v.007a4.612,4.612,0,0,1-1.1,2.173,5.776,5.776,0,0,1-2.12,1.494A9.841,9.841,0,0,1,16.346,113.458Zm-.061-103.43a7.971,7.971,0,1,0,5.636,2.335A7.917,7.917,0,0,0,16.285,10.028Z" transform="translate(13.272 0)" fill="#1b5f88"/>
      <path id="Union_5" data-name="Union 5" d="M0,80.306c0-18.528,9.629-34.06,22.583-38.2V0H36.531V42.163C49.4,46.375,58.953,61.855,58.953,80.306c0,21.691-13.2,51.206-29.477,51.206S0,102,0,80.306Z" transform="translate(0 100.027)" fill="#434343"/>
      <path id="Exclusion_10" data-name="Exclusion 10" d="M16.346,113.458H16.3a10.4,10.4,0,0,1-3.9-.689,6.413,6.413,0,0,1-2.236-1.493A5,5,0,0,1,8.9,109.111c-.09-.851-8.966-85.24-8.9-94.183A24.117,24.117,0,0,1,.712,8.784a10.968,10.968,0,0,1,2.5-4.708A11.283,11.283,0,0,1,8.174,1.062,26.442,26.442,0,0,1,16.3,0C22.848,0,26.78,1.084,29.044,3.514a9.984,9.984,0,0,1,2.293,4.638,32.609,32.609,0,0,1,.684,6.777c.06,3-.626,14.3-4.235,51.042-2.119,21.58-4.3,42.264-4.391,43.134v.007a4.612,4.612,0,0,1-1.1,2.173,5.776,5.776,0,0,1-2.12,1.494A9.841,9.841,0,0,1,16.346,113.458Zm-.061-103.43a7.971,7.971,0,1,0,5.636,2.335A7.917,7.917,0,0,0,16.285,10.028Z" transform="translate(13.272 0)" fill="#19807a"/>
    </g>
    <g id="delantal-cocina-bolsillo-plano-by-Vexels" transform="matrix(0.999, 0.035, -0.035, 0.999, 680.593, 277.249)">
      <path id="Path_902" data-name="Path 902" d="M17.776,296.35A30.028,30.028,0,0,1,24.46,302.8c11.657,15.626,2.83,36.68-15.341,39.483-2.16.333-4.333.589-6.5.9a5.067,5.067,0,0,0-1.658.369A1.913,1.913,0,0,0,0,345.269c0,.746.717.794,1.234.949a11.073,11.073,0,0,0,5.463.473c8.1-1.738,15.255-5.235,20.439-11.926a43.522,43.522,0,0,0,6.432-11.785,19.019,19.019,0,0,0,1.04-10.873,30.158,30.158,0,0,0-10.482-17.041C18.215,290.28,13.9,284.13,10.2,277.611a12.113,12.113,0,0,1,1.57-14.751,26.445,26.445,0,0,1,4.936-4.29C22,255,27.966,253.43,34.169,252.514c6.175-.912,12.4-.5,18.6-.826,1.8-.1,2.64.348,2.088,2.691A102.647,102.647,0,0,0,52.9,267.69a115.04,115.04,0,0,0,3.529,43.457c6.89,24.141,21.014,42.477,43.862,53.634a36.779,36.779,0,0,0,8.436,3c9.143,1.957,18.4,3.337,27.744,2.672,7.138-.507,14.258-.438,21.391-.6,1.957.038,3.915.059,5.872.119a119.307,119.307,0,0,0,16.2-.612c6.294-.664,12.6-1.243,18.9-1.827,4.579-.424,9.179-.317,13.776-.712,7.65-.658,14.924-2.727,22.214-4.833a27.318,27.318,0,0,0,5.688-2.47,79.021,79.021,0,0,0,34.639-38.194c7.889-18.033,9.236-36.913,6.97-56.214a114.908,114.908,0,0,0-4.382-20.923c-.6-1.905-.318-2.445,1.464-2.528,7.8-.364,15.563-1.484,23.432-.482a41.342,41.342,0,0,1,13.766,4.221,21.114,21.114,0,0,1,4.987,3.677c4.294,4.121,5.406,9.377,2.919,14.813A79.081,79.081,0,0,1,318.2,274.7c-2.367,3.564-5.379,6.581-8.106,9.842-5.648,6.757-8.574,14.4-6.091,23.343.968,3.486,2.924,6.494,4.865,9.491,5.72,8.832,14.169,13.177,24.3,14.742,2.369.366,4.562-.366,6.738-1.1.85-.287.768-.991.343-1.684a2.21,2.21,0,0,0-2.05-1.016c-1.842-.037-3.686-.068-5.525-.168a26.755,26.755,0,0,1-11.892-3.212c-12.031-6.77-15.927-22.4-8.622-34.547a33.713,33.713,0,0,1,6.76-7.8A43.757,43.757,0,0,0,330,267.331c3.276-7.429,3.214-14.759-1.663-21.632a24.105,24.105,0,0,0-8.818-7.583,43.8,43.8,0,0,0-16.233-4.373c-9.351-.851-18.654-.007-27.9,1.165-7.305.926-14.207.513-20.607-3.485a31.286,31.286,0,0,0-3.083-1.554A37.155,37.155,0,0,1,238.666,219.3a101.09,101.09,0,0,1-11.474-18.444c-7.551-15.279-12.341-31.466-15.8-48.092a301.719,301.719,0,0,1-5.745-44.475,225.564,225.564,0,0,1-.265-27.273,66.556,66.556,0,0,0-1.571-20.585c-.727-2.9-1.37-5.827-2.156-8.713-4.147-15.224-10.527-29.175-22.138-40.373a43.157,43.157,0,0,0-13.958-9.3C160.879.161,156.049-.7,151.036.668a32.611,32.611,0,0,0-14.9,8.4c-7.048,7.177-12.91,15.29-16.583,24.809a136.89,136.89,0,0,0-7.115,28.414,69.227,69.227,0,0,0-.2,21.683c1.9,11.873,2.366,23.829,2.488,35.8.1,9.9-.212,19.8-1.1,29.677a233.593,233.593,0,0,1-7.308,42.118c-3.258,11.685-7.506,22.98-14.075,33.276A36.471,36.471,0,0,1,81.7,236.113c-3.175,2.083-6.42,4.072-9.728,5.935a14.619,14.619,0,0,1-6.805,2.289c-3.682.084-7.364.221-11.047.24-8.052.04-16.114-.341-24.111,1.087-6.638,1.186-13.067,2.94-18.583,6.982-8.966,6.57-13.03,17.709-6.389,29.338A44.483,44.483,0,0,0,17.776,296.35Zm98.4-222.276c.263-16.814,3.468-31.082,9.921-44.584a53.956,53.956,0,0,1,12.593-17.155,33.408,33.408,0,0,1,8.926-5.826,21.236,21.236,0,0,1,16.463-.452,37.538,37.538,0,0,1,13.215,8.592,66.428,66.428,0,0,1,13.079,18.535c7.241,14.6,10.539,30.125,10.793,46.354.011.691-.021,1.382,0,2.072.029,1.161-.569,1.616-1.681,1.68-4.71.27-9.417.585-14.126.869-7.7.464-15.392.954-23.092,1.361-4.713.249-9.433.4-14.151.532-7.25.21-14.5.357-21.751.563-2.53.072-5.058.218-7.585.37-1.464.088-2.018-.552-2.1-2.007C116.429,80.726,116.069,76.479,116.174,74.074Z" transform="translate(0)" fill="#ef008b"/>
      <path id="Path_903" data-name="Path 903" d="M75.325,51.244c-.071,3.607-.1,6.256-.18,8.9a15.594,15.594,0,0,1-9.76,13.475,5.021,5.021,0,0,1-1.662.406c-3.224-.026-6.448-.108-9.671-.2-.321-.009-.711-.145-.621-.6a.735.735,0,0,1,.4-.491,33.729,33.729,0,0,1,3.327-.851c1.579-.284,3.2-.36,4.763-.7a13.31,13.31,0,0,0,9.081-7.36c1.094-2.132,1.192-4.892,1.3-7.389.34-7.579-.244-15.141-.708-22.706-.2-3.326.09-6.678.008-10.015-.175-7.063-.681-6.587-6.993-5.882a7.691,7.691,0,0,1-1.364.175c-5.183-.382-10.332.361-15.5.529a163.9,163.9,0,0,0-16.486.877,5.01,5.01,0,0,1-1.034.046c-5.641-.42-11.237.629-16.881.494-2.732-.065-5.467.647-8.24.473-1.317-.083-1.841.7-1.837,1.938a25.816,25.816,0,0,0,0,3.8c1.083,7.052.882,14.19,1.412,21.279.342,4.578.787,9.135,1.236,13.7.54,5.5,3.468,9.071,8.319,11.354a8.419,8.419,0,0,0,4.044.656,30.714,30.714,0,0,1,6.825.846,2.211,2.211,0,0,1,.579.306c-.159.151-.3.405-.479.438C19.265,75.815,13.439,77.6,8.031,72.471A17.648,17.648,0,0,1,2.539,61.013c-.663-5.7-.86-11.437-1.27-17.151-.362-5.037.093-10.1-.768-15.123-.54-3.152-.008-6.4-.3-9.632A118.4,118.4,0,0,1,.155,6.385C.211,3.35.579,2.951,3.591,3.064c5.984.224,11.942-.405,17.916-.51,7.448-.131,14.9-.61,22.356-.909,6.3-.253,12.605-.6,18.9-1.009C65.27.473,67.79.224,70.3.024c1.569-.125,2.127.214,2.367,1.665a41.8,41.8,0,0,1,.5,4.781c.164,3.444.518,6.885.876,10.289.566,5.383.37,10.776.726,16.157C75.2,39.315,75.973,45.754,75.325,51.244Z" transform="translate(129.903 247.346)" fill="#871f58"/>
      <path id="Path_904" data-name="Path 904" d="M61.471,0a3.365,3.365,0,0,1,.345.008c2.018.249,4.132-.474,6.069.6.438,2.812,1.137,5.6.874,8.482a1.444,1.444,0,0,1-1.287,1.386,16.208,16.208,0,0,1-4.426.582c-5.976-.422-11.929.372-17.893.516-7.1.172-14.2.622-21.3.923-6.408.272-12.811.778-19.23.9-.345.007-.69,0-1.035-.009C.447,13.305.406,13.259.383,10A20.61,20.61,0,0,0,.057,4.513,1.145,1.145,0,0,1,1.048,3a15.967,15.967,0,0,1,3.041-.57C7.3,2.383,10.517,2.01,13.7,1.99c4.6-.029,9.214-.293,13.737-.758C32.595.7,37.794,1.566,42.884.406a1.277,1.277,0,0,1,.344-.012C49.318.683,55.392.235,61.471,0Z" transform="translate(132.271 250.911)" fill="#de91be"/>
    </g>
    <text id="_4" data-name="4" transform="matrix(0.995, 0.105, -0.105, 0.995, 456.953, 634.654)" fill="#19807a" font-size="537" font-family="AnticSlab-Regular, Antic Slab"><tspan x="-161.368" y="0">4</tspan></text>
    <text id="_4-2" data-name="4" transform="translate(1179.626 633.589) rotate(-9)" fill="#ffcb00" font-size="537" font-family="AnticSlab-Regular, Antic Slab"><tspan x="-161.368" y="0">4</tspan></text>
    <text id="Oooops_Algo_salió_mal" data-name="Oooops! Algo salió mal" transform="translate(843 899)" fill="#19807a" font-size="67" font-family="AnticSlab-Regular, Antic Slab"><tspan x="-339.589" y="0">Oooops! Algo salió mal</tspan></text>
    <g id="Group_400" data-name="Group 400" transform="matrix(0.951, 0.309, -0.309, 0.951, 1272.913, 768.852)">
      <g id="Group_7" data-name="Group 7" transform="translate(0 105.038)">
        <rect id="Rectangle_4" data-name="Rectangle 4" width="13.803" height="36.807" rx="5" transform="translate(18.52 0)" fill="#434343"/>
        <g id="Path_19" data-name="Path 19" transform="matrix(0.996, -0.087, 0.087, 0.996, 7.228, 36.888)" fill="none">
          <path d="M17.933,0c9.9,0,17.933,39.713,17.933,57.138S24.855,88.532,14.95,88.532,0,74.562,0,57.138,8.029,0,17.933,0Z" stroke="none"/>
          <path d="M 17.93339157104492 2 C 16.46792411804199 2 14.56587219238281 3.976852416992188 12.71492576599121 7.423675537109375 C 10.78811073303223 11.01178741455078 8.87567138671875 16.24327850341797 7.184364318847656 22.55257415771484 C 4.131885528564453 33.93963623046875 1.999992370605469 48.16154479980469 2.000003814697266 57.13768768310547 C 2.000003814697266 61.41206359863281 2.308151245117188 65.42485046386719 2.915885925292969 69.06458282470703 C 3.52740478515625 72.7269287109375 4.427484512329102 75.92246246337891 5.59113883972168 78.56240844726562 C 6.749685287475586 81.19074249267578 8.141977310180664 83.20582580566406 9.729351043701172 84.55167388916016 C 11.3012580871582 85.88442230224609 13.00905799865723 86.53228759765625 14.95033836364746 86.53228759765625 C 19.13633918762207 86.53228759765625 23.82300567626953 83.42414093017578 27.48717880249023 78.21799468994141 C 29.43776512145996 75.44655609130859 30.98443222045898 72.27513122558594 32.0842170715332 68.79182434082031 C 33.26705932617188 65.04542541503906 33.86680603027344 61.12441253662109 33.86680603027344 57.13768768310547 C 33.86680603027344 48.16154479980469 31.73491096496582 33.93962478637695 28.68243217468262 22.55258178710938 C 26.99112510681152 16.24327850341797 25.07868576049805 11.01178741455078 23.15187072753906 7.423675537109375 C 21.30092620849609 3.976852416992188 19.39885902404785 2 17.93339157104492 2 M 17.93339157104492 0 C 27.83773803710938 0 35.86680603027344 39.71338272094727 35.86680603027344 57.13768768310547 C 35.86681747436523 74.56199645996094 24.85468482971191 88.53228759765625 14.95033836364746 88.53228759765625 C 5.046005249023438 88.53228759765625 3.814697265625e-06 74.56198120117188 3.814697265625e-06 57.13768768310547 C -7.62939453125e-06 39.71338272094727 8.029058456420898 0 17.93339157104492 0 Z" stroke="none" fill="#434343"/>
        </g>
        <g id="Path_20" data-name="Path 20" transform="matrix(0.998, 0.07, -0.07, 0.998, 6.181, 34.013)" fill="none">
          <path d="M17.933,0c9.9,0,17.933,39.713,17.933,57.138S30.928,88.614,21.023,88.614,0,74.562,0,57.138,8.029,0,17.933,0Z" stroke="none"/>
          <path d="M 17.93340492248535 2 C 16.46793746948242 2 14.56587219238281 3.976852416992188 12.71492576599121 7.423675537109375 C 10.78811073303223 11.01178741455078 8.87568473815918 16.24327850341797 7.184364318847656 22.55257415771484 C 4.131898880004883 33.93962478637695 2.000003814697266 48.16154479980469 2.000003814697266 57.13769149780273 C 2.000003814697266 61.12178421020508 2.604991912841797 65.04594421386719 3.798164367675781 68.8011474609375 C 4.891578674316406 72.24233245849609 6.493684768676758 75.51199340820312 8.431324005126953 78.25663757324219 C 12.1258716583252 83.48992919921875 16.83309745788574 86.61428833007812 21.02316474914551 86.61428833007812 C 22.95912551879883 86.61428833007812 24.65896606445312 85.96438598632812 26.21980476379395 84.62741088867188 C 27.79639053344727 83.27696990966797 29.17751121520996 81.25344848632812 30.32479095458984 78.61306762695312 C 31.47489929199219 75.96617126464844 32.36375045776367 72.75984954833984 32.96664428710938 69.08316040039062 C 33.56394958496094 65.44054412841797 33.86680603027344 61.42150497436523 33.86680603027344 57.13769149780273 C 33.86680603027344 48.16154479980469 31.73491096496582 33.93962478637695 28.68244552612305 22.55257415771484 C 26.99112510681152 16.24327850341797 25.07869720458984 11.01178741455078 23.15188598632812 7.423675537109375 C 21.30093765258789 3.976852416992188 19.39887237548828 2 17.93340492248535 2 M 17.93340492248535 0 C 27.8377513885498 0 35.86680603027344 39.71338272094727 35.86680603027344 57.13769149780273 C 35.86680603027344 74.56198120117188 30.92751121520996 88.61428833007812 21.02316474914551 88.61428833007812 C 11.11881828308105 88.61428833007812 3.814697265625e-06 74.56198120117188 3.814697265625e-06 57.13769149780273 C 3.814697265625e-06 39.71338272094727 8.029058456420898 0 17.93340492248535 0 Z" stroke="none" fill="#434343"/>
        </g>
        <g id="Path_21" data-name="Path 21" transform="translate(15.667 35.156)" fill="none">
          <path d="M9.546,0c5.272,0,9.546,39.713,9.546,57.138S14.818,88.687,9.546,88.687,0,74.562,0,57.138,4.274,0,9.546,0Z" stroke="none"/>
          <path d="M 9.54560661315918 2.411109924316406 C 9.082777976989746 3.147552490234375 8.262450218200684 4.878402709960938 7.276140213012695 8.811798095703125 C 6.30859375 12.67039489746094 5.358926773071289 17.95301055908203 4.52983283996582 24.08853149414062 C 3.016660690307617 35.28636932373047 1.999992370605469 48.56781005859375 1.999992370605469 57.13769149780273 C 1.999992370605469 65.37403869628906 2.962486267089844 73.09111785888672 4.710140228271484 78.86737060546875 C 5.511913299560547 81.51731872558594 6.461647033691406 83.65326690673828 7.456686973571777 85.04428100585938 C 8.203566551208496 86.08837127685547 8.964940071105957 86.68719482421875 9.54560661315918 86.68719482421875 C 10.1262731552124 86.68719482421875 10.88764667510986 86.08837127685547 11.6345272064209 85.04428100585938 C 12.62956619262695 83.65326690673828 13.57929992675781 81.51731872558594 14.38107299804688 78.86737060546875 C 16.12874031066895 73.09111785888672 17.09120559692383 65.37403869628906 17.09120559692383 57.13770294189453 C 17.09120559692383 48.56781005859375 16.07453918457031 35.28636932373047 14.56138038635254 24.08853149414062 C 13.73227310180664 17.95301055908203 12.78261947631836 12.67039489746094 11.81507301330566 8.811813354492188 C 10.82876300811768 4.878410339355469 10.00843524932861 3.147560119628906 9.54560661315918 2.411109924316406 M 9.54560661315918 0 C 14.81750011444092 0 19.09120750427246 39.71338272094727 19.09120750427246 57.13770294189453 C 19.09122085571289 74.56199645996094 14.81750011444092 88.68719482421875 9.54560661315918 88.68719482421875 C 4.273713111877441 88.68719482421875 5.7220458984375e-06 74.56199645996094 -7.62939453125e-06 57.13769149780273 C -7.62939453125e-06 39.71338272094727 4.273713111877441 0 9.54560661315918 0 Z" stroke="none" fill="#434343"/>
        </g>
        <g id="Path_22" data-name="Path 22" transform="translate(6.959 35.156)" fill="none">
          <path d="M18.027,0c9.956,0,18.027,39.713,18.027,57.138S27.983,88.687,18.027,88.687,0,74.562,0,57.138,8.071,0,18.027,0Z" stroke="none"/>
          <path d="M 18.02680969238281 2 C 15.592529296875 2 11.29926300048828 7.38330078125 7.211050033569336 22.55509185791016 C 4.142862319946289 33.94143676757812 1.999996185302734 48.16231918334961 1.999996185302734 57.13769149780273 C 1.999996185302734 61.2387580871582 2.457798004150391 65.21243286132812 3.360664367675781 68.94835662841797 C 4.224355697631836 72.52215576171875 5.454343795776367 75.72043609619141 7.016448974609375 78.454345703125 C 8.53358268737793 81.10952758789062 10.27754211425781 83.17736053466797 12.19990348815918 84.60038757324219 C 14.07050323486328 85.98509216308594 16.03095626831055 86.68719482421875 18.02680969238281 86.68719482421875 C 20.02266311645508 86.68719482421875 21.98311614990234 85.98509216308594 23.85371589660645 84.60038757324219 C 25.77607727050781 83.17736053466797 27.5200366973877 81.10952758789062 29.03717041015625 78.454345703125 C 30.59927749633789 75.72043609619141 31.82925033569336 72.52217102050781 32.69294357299805 68.94837188720703 C 33.59582138061523 65.21244812011719 34.05360794067383 61.23876953125 34.05360794067383 57.13770294189453 C 34.05360794067383 48.16233062744141 31.91074371337891 33.94145202636719 28.84255599975586 22.55509185791016 C 24.75434303283691 7.38330078125 20.46109008789062 2 18.02680969238281 2 M 18.02680969238281 0 C 27.98273086547852 0 36.05360794067383 39.71338272094727 36.05360794067383 57.13770294189453 C 36.05362319946289 74.56199645996094 27.98274230957031 88.68719482421875 18.02680969238281 88.68719482421875 C 8.070877075195312 88.68719482421875 -3.814697265625e-06 74.56199645996094 -3.814697265625e-06 57.13769149780273 C -3.814697265625e-06 39.71338272094727 8.070877075195312 0 18.02680969238281 0 Z" stroke="none" fill="#434343"/>
        </g>
        <g id="Path_23" data-name="Path 23" transform="translate(20.98 35.156)" fill="none">
          <path d="M4.238,0C6.579,0,8.477,39.713,8.477,57.138s-1.9,31.549-4.238,31.549S0,74.562,0,57.138,1.9,0,4.238,0Z" stroke="none"/>
          <path d="M 4.238492012023926 9.651008605957031 C 3.887772560119629 13.00478363037109 3.499790668487549 17.68711090087891 3.111412048339844 24.21334075927734 C 2.446638584136963 35.38405227661133 1.999998569488525 48.61532974243164 1.999998569488525 57.13769149780273 C 1.999998569488525 64.62593078613281 2.360265254974365 71.85879516601562 3.014425277709961 77.50392913818359 C 3.425423622131348 81.05067443847656 3.867673873901367 83.30355072021484 4.238492012023926 84.71982574462891 C 4.609310150146484 83.30355072021484 5.051560401916504 81.05067443847656 5.462558746337891 77.50392913818359 C 6.116718769073486 71.85879516601562 6.476985454559326 64.62593078613281 6.476985454559326 57.13769149780273 C 6.476985454559326 48.61532974243164 6.030345439910889 35.38405227661133 5.365571975708008 24.21334075927734 C 4.977193832397461 17.68711090087891 4.589211463928223 13.00478363037109 4.238492012023926 9.651008605957031 M 4.238492012023926 0 C 6.579345226287842 0 8.476984977722168 39.71338272094727 8.476984977722168 57.13769149780273 C 8.476984977722168 74.56199645996094 6.579345226287842 88.68719482421875 4.238492012023926 88.68719482421875 C 1.89763879776001 88.68719482421875 -9.5367431640625e-07 74.56199645996094 -9.5367431640625e-07 57.13769149780273 C -9.5367431640625e-07 39.71338272094727 1.89763879776001 0 4.238492012023926 0 Z" stroke="none" fill="#434343"/>
        </g>
      </g>
      <path id="Exclusion_5" data-name="Exclusion 5" d="M16.346,113.458H16.3a10.4,10.4,0,0,1-3.9-.689,6.413,6.413,0,0,1-2.236-1.493A5,5,0,0,1,8.9,109.111c-.09-.851-8.966-85.24-8.9-94.183A24.117,24.117,0,0,1,.712,8.784a10.968,10.968,0,0,1,2.5-4.708A11.283,11.283,0,0,1,8.174,1.062,26.442,26.442,0,0,1,16.3,0C22.848,0,26.78,1.084,29.044,3.514a9.984,9.984,0,0,1,2.293,4.638,32.61,32.61,0,0,1,.684,6.777c.06,3-.626,14.3-4.235,51.042-2.119,21.58-4.3,42.264-4.391,43.134v.007a4.612,4.612,0,0,1-1.1,2.173,5.776,5.776,0,0,1-2.12,1.494A9.841,9.841,0,0,1,16.346,113.458Zm-.061-103.43a7.971,7.971,0,1,0,5.636,2.335A7.917,7.917,0,0,0,16.285,10.028Z" transform="translate(9.013 0)" fill="#ffcb00"/>
      <g id="Group_15" data-name="Group 15" transform="translate(0 105.038)">
        <rect id="Rectangle_4-2" data-name="Rectangle 4" width="13.803" height="36.807" rx="5" transform="translate(18.52 0)" fill="#434343"/>
        <g id="Path_19-2" data-name="Path 19" transform="matrix(0.996, -0.087, 0.087, 0.996, 7.228, 36.888)" fill="none">
          <path d="M17.933,0c9.9,0,17.933,39.713,17.933,57.138S24.855,88.532,14.95,88.532,0,74.562,0,57.138,8.029,0,17.933,0Z" stroke="none"/>
          <path d="M 17.93339157104492 2 C 16.46792411804199 2 14.56587219238281 3.976852416992188 12.71492576599121 7.423675537109375 C 10.78811073303223 11.01178741455078 8.87567138671875 16.24327850341797 7.184364318847656 22.55257415771484 C 4.131885528564453 33.93963623046875 1.999992370605469 48.16154479980469 2.000003814697266 57.13768768310547 C 2.000003814697266 61.41206359863281 2.308151245117188 65.42485046386719 2.915885925292969 69.06458282470703 C 3.52740478515625 72.7269287109375 4.427484512329102 75.92246246337891 5.59113883972168 78.56240844726562 C 6.749685287475586 81.19074249267578 8.141977310180664 83.20582580566406 9.729351043701172 84.55167388916016 C 11.3012580871582 85.88442230224609 13.00905799865723 86.53228759765625 14.95033836364746 86.53228759765625 C 19.13633918762207 86.53228759765625 23.82300567626953 83.42414093017578 27.48717880249023 78.21799468994141 C 29.43776512145996 75.44655609130859 30.98443222045898 72.27513122558594 32.0842170715332 68.79182434082031 C 33.26705932617188 65.04542541503906 33.86680603027344 61.12441253662109 33.86680603027344 57.13768768310547 C 33.86680603027344 48.16154479980469 31.73491096496582 33.93962478637695 28.68243217468262 22.55258178710938 C 26.99112510681152 16.24327850341797 25.07868576049805 11.01178741455078 23.15187072753906 7.423675537109375 C 21.30092620849609 3.976852416992188 19.39885902404785 2 17.93339157104492 2 M 17.93339157104492 0 C 27.83773803710938 0 35.86680603027344 39.71338272094727 35.86680603027344 57.13768768310547 C 35.86681747436523 74.56199645996094 24.85468482971191 88.53228759765625 14.95033836364746 88.53228759765625 C 5.046005249023438 88.53228759765625 3.814697265625e-06 74.56198120117188 3.814697265625e-06 57.13768768310547 C -7.62939453125e-06 39.71338272094727 8.029058456420898 0 17.93339157104492 0 Z" stroke="none" fill="#434343"/>
        </g>
        <g id="Path_20-2" data-name="Path 20" transform="matrix(0.998, 0.07, -0.07, 0.998, 6.181, 34.013)" fill="none">
          <path d="M17.933,0c9.9,0,17.933,39.713,17.933,57.138S30.928,88.614,21.023,88.614,0,74.562,0,57.138,8.029,0,17.933,0Z" stroke="none"/>
          <path d="M 17.93340492248535 2 C 16.46793746948242 2 14.56587219238281 3.976852416992188 12.71492576599121 7.423675537109375 C 10.78811073303223 11.01178741455078 8.87568473815918 16.24327850341797 7.184364318847656 22.55257415771484 C 4.131898880004883 33.93962478637695 2.000003814697266 48.16154479980469 2.000003814697266 57.13769149780273 C 2.000003814697266 61.12178421020508 2.604991912841797 65.04594421386719 3.798164367675781 68.8011474609375 C 4.891578674316406 72.24233245849609 6.493684768676758 75.51199340820312 8.431324005126953 78.25663757324219 C 12.1258716583252 83.48992919921875 16.83309745788574 86.61428833007812 21.02316474914551 86.61428833007812 C 22.95912551879883 86.61428833007812 24.65896606445312 85.96438598632812 26.21980476379395 84.62741088867188 C 27.79639053344727 83.27696990966797 29.17751121520996 81.25344848632812 30.32479095458984 78.61306762695312 C 31.47489929199219 75.96617126464844 32.36375045776367 72.75984954833984 32.96664428710938 69.08316040039062 C 33.56394958496094 65.44054412841797 33.86680603027344 61.42150497436523 33.86680603027344 57.13769149780273 C 33.86680603027344 48.16154479980469 31.73491096496582 33.93962478637695 28.68244552612305 22.55257415771484 C 26.99112510681152 16.24327850341797 25.07869720458984 11.01178741455078 23.15188598632812 7.423675537109375 C 21.30093765258789 3.976852416992188 19.39887237548828 2 17.93340492248535 2 M 17.93340492248535 0 C 27.8377513885498 0 35.86680603027344 39.71338272094727 35.86680603027344 57.13769149780273 C 35.86680603027344 74.56198120117188 30.92751121520996 88.61428833007812 21.02316474914551 88.61428833007812 C 11.11881828308105 88.61428833007812 3.814697265625e-06 74.56198120117188 3.814697265625e-06 57.13769149780273 C 3.814697265625e-06 39.71338272094727 8.029058456420898 0 17.93340492248535 0 Z" stroke="none" fill="#434343"/>
        </g>
        <g id="Path_21-2" data-name="Path 21" transform="translate(15.667 35.156)" fill="none">
          <path d="M9.546,0c5.272,0,9.546,39.713,9.546,57.138S14.818,88.687,9.546,88.687,0,74.562,0,57.138,4.274,0,9.546,0Z" stroke="none"/>
          <path d="M 9.54560661315918 2.411109924316406 C 9.082777976989746 3.147552490234375 8.262450218200684 4.878402709960938 7.276140213012695 8.811798095703125 C 6.30859375 12.67039489746094 5.358926773071289 17.95301055908203 4.52983283996582 24.08853149414062 C 3.016660690307617 35.28636932373047 1.999992370605469 48.56781005859375 1.999992370605469 57.13769149780273 C 1.999992370605469 65.37403869628906 2.962486267089844 73.09111785888672 4.710140228271484 78.86737060546875 C 5.511913299560547 81.51731872558594 6.461647033691406 83.65326690673828 7.456686973571777 85.04428100585938 C 8.203566551208496 86.08837127685547 8.964940071105957 86.68719482421875 9.54560661315918 86.68719482421875 C 10.1262731552124 86.68719482421875 10.88764667510986 86.08837127685547 11.6345272064209 85.04428100585938 C 12.62956619262695 83.65326690673828 13.57929992675781 81.51731872558594 14.38107299804688 78.86737060546875 C 16.12874031066895 73.09111785888672 17.09120559692383 65.37403869628906 17.09120559692383 57.13770294189453 C 17.09120559692383 48.56781005859375 16.07453918457031 35.28636932373047 14.56138038635254 24.08853149414062 C 13.73227310180664 17.95301055908203 12.78261947631836 12.67039489746094 11.81507301330566 8.811813354492188 C 10.82876300811768 4.878410339355469 10.00843524932861 3.147560119628906 9.54560661315918 2.411109924316406 M 9.54560661315918 0 C 14.81750011444092 0 19.09120750427246 39.71338272094727 19.09120750427246 57.13770294189453 C 19.09122085571289 74.56199645996094 14.81750011444092 88.68719482421875 9.54560661315918 88.68719482421875 C 4.273713111877441 88.68719482421875 5.7220458984375e-06 74.56199645996094 -7.62939453125e-06 57.13769149780273 C -7.62939453125e-06 39.71338272094727 4.273713111877441 0 9.54560661315918 0 Z" stroke="none" fill="#434343"/>
        </g>
        <g id="Path_22-2" data-name="Path 22" transform="translate(6.959 35.156)" fill="none">
          <path d="M18.027,0c9.956,0,18.027,39.713,18.027,57.138S27.983,88.687,18.027,88.687,0,74.562,0,57.138,8.071,0,18.027,0Z" stroke="none"/>
          <path d="M 18.02680969238281 2 C 15.592529296875 2 11.29926300048828 7.38330078125 7.211050033569336 22.55509185791016 C 4.142862319946289 33.94143676757812 1.999996185302734 48.16231918334961 1.999996185302734 57.13769149780273 C 1.999996185302734 61.2387580871582 2.457798004150391 65.21243286132812 3.360664367675781 68.94835662841797 C 4.224355697631836 72.52215576171875 5.454343795776367 75.72043609619141 7.016448974609375 78.454345703125 C 8.53358268737793 81.10952758789062 10.27754211425781 83.17736053466797 12.19990348815918 84.60038757324219 C 14.07050323486328 85.98509216308594 16.03095626831055 86.68719482421875 18.02680969238281 86.68719482421875 C 20.02266311645508 86.68719482421875 21.98311614990234 85.98509216308594 23.85371589660645 84.60038757324219 C 25.77607727050781 83.17736053466797 27.5200366973877 81.10952758789062 29.03717041015625 78.454345703125 C 30.59927749633789 75.72043609619141 31.82925033569336 72.52217102050781 32.69294357299805 68.94837188720703 C 33.59582138061523 65.21244812011719 34.05360794067383 61.23876953125 34.05360794067383 57.13770294189453 C 34.05360794067383 48.16233062744141 31.91074371337891 33.94145202636719 28.84255599975586 22.55509185791016 C 24.75434303283691 7.38330078125 20.46109008789062 2 18.02680969238281 2 M 18.02680969238281 0 C 27.98273086547852 0 36.05360794067383 39.71338272094727 36.05360794067383 57.13770294189453 C 36.05362319946289 74.56199645996094 27.98274230957031 88.68719482421875 18.02680969238281 88.68719482421875 C 8.070877075195312 88.68719482421875 -3.814697265625e-06 74.56199645996094 -3.814697265625e-06 57.13769149780273 C -3.814697265625e-06 39.71338272094727 8.070877075195312 0 18.02680969238281 0 Z" stroke="none" fill="#434343"/>
        </g>
        <g id="Path_23-2" data-name="Path 23" transform="translate(20.98 35.156)" fill="none">
          <path d="M4.238,0C6.579,0,8.477,39.713,8.477,57.138s-1.9,31.549-4.238,31.549S0,74.562,0,57.138,1.9,0,4.238,0Z" stroke="none"/>
          <path d="M 4.238492012023926 9.651008605957031 C 3.887772560119629 13.00478363037109 3.499790668487549 17.68711090087891 3.111412048339844 24.21334075927734 C 2.446638584136963 35.38405227661133 1.999998569488525 48.61532974243164 1.999998569488525 57.13769149780273 C 1.999998569488525 64.62593078613281 2.360265254974365 71.85879516601562 3.014425277709961 77.50392913818359 C 3.425423622131348 81.05067443847656 3.867673873901367 83.30355072021484 4.238492012023926 84.71982574462891 C 4.609310150146484 83.30355072021484 5.051560401916504 81.05067443847656 5.462558746337891 77.50392913818359 C 6.116718769073486 71.85879516601562 6.476985454559326 64.62593078613281 6.476985454559326 57.13769149780273 C 6.476985454559326 48.61532974243164 6.030345439910889 35.38405227661133 5.365571975708008 24.21334075927734 C 4.977193832397461 17.68711090087891 4.589211463928223 13.00478363037109 4.238492012023926 9.651008605957031 M 4.238492012023926 0 C 6.579345226287842 0 8.476984977722168 39.71338272094727 8.476984977722168 57.13769149780273 C 8.476984977722168 74.56199645996094 6.579345226287842 88.68719482421875 4.238492012023926 88.68719482421875 C 1.89763879776001 88.68719482421875 -9.5367431640625e-07 74.56199645996094 -9.5367431640625e-07 57.13769149780273 C -9.5367431640625e-07 39.71338272094727 1.89763879776001 0 4.238492012023926 0 Z" stroke="none" fill="#434343"/>
        </g>
      </g>
    </g>
    <text id="Página_no_encontrada" data-name="Página no encontrada" transform="translate(839 1021)" fill="#ef008b" font-size="53" font-family="AnticSlab-Regular, Antic Slab"><tspan x="-252.359" y="0">Página no encontrada</tspan></text>
    <g id="noun_Floral_2820437" transform="matrix(0.966, 0.259, -0.259, 0.966, 808.282, 393.103)">
      <g id="Group_370" data-name="Group 370" transform="translate(0 0)">
        <g id="Group_369" data-name="Group 369" transform="translate(0 0)">
          <g id="Group_290" data-name="Group 290" transform="translate(20.317 36.239)">
            <path id="Path_290" data-name="Path 290" d="M25.231,72.942a114.813,114.813,0,0,0,2.484-17.68A52.1,52.1,0,0,0,25.2,37.718c-2.911-9.4-7.09-18.581-13.224-26.339A51.921,51.921,0,0,0,.076.316C-.1.2.065-.091.245.028c8.249,5.448,14.483,13.384,19.006,22.09a92.374,92.374,0,0,1,5.694,13.657A54.772,54.772,0,0,1,28.1,52.815c.024,6.813-1.275,13.538-2.7,20.171-.024.117-.193.068-.171-.044Z" fill="#871f58" stroke="#871f58" stroke-width="1"/>
          </g>
          <g id="Group_291" data-name="Group 291" transform="translate(44.814 65.039)">
            <path id="Path_291" data-name="Path 291" d="M1.536,10.741C2.288,10.679,3.17,9.006,3.5,8.476a9.558,9.558,0,0,0,1.1-2.35c.5-1.666.437-4.008-.961-5.27C1.609-.981.494,3.653.463,4.922A12.841,12.841,0,0,0,1.91,10.514c.121.268-.264.506-.4.235a10.945,10.945,0,0,1-1.3-7.367C.547,1.973,1.811-1,3.675.336c1.761,1.258,1.9,4.021,1.334,5.9A10.784,10.784,0,0,1,3.2,9.622c-.4.528-.921,1.552-1.693,1.345-.132-.033-.095-.215.033-.226Z" fill="#871f58" stroke="#871f58" stroke-width="1"/>
          </g>
          <g id="Group_292" data-name="Group 292" transform="translate(38.19 69.21)">
            <path id="Path_292" data-name="Path 292" d="M8.164,6.533A22.723,22.723,0,0,0,5.594,2C4.508.681,1.947-.636.692,1.292S1.668,5.034,3.2,5.755a6.985,6.985,0,0,0,5.591.567c.237-.095.336.286.106.383-2.223.917-4.889.1-6.842-1.134C.67,4.693-.6,2.916.3,1.248,1.112-.249,3.178-.278,4.488.522c1.965,1.2,3.117,3.863,3.863,5.931.037.108-.136.182-.187.079Z" fill="#871f58" stroke="#871f58" stroke-width="1"/>
          </g>
          <g id="Group_293" data-name="Group 293" transform="translate(40.328 53.194)">
            <path id="Path_293" data-name="Path 293" d="M2.239,12.044A15.048,15.048,0,0,0,4.191,7.251c.334-1.693.53-4.113-.3-5.694C3-.137,1.329.5.772,2.008A7,7,0,0,0,.5,4.831a14.431,14.431,0,0,0,1.323,5.85.163.163,0,0,1-.281.165C.185,8.821-.16,5.653.062,3.27.2,1.819,1.2-.637,3.118.153,4.969.916,4.963,3.8,4.866,5.444a12.087,12.087,0,0,1-2.447,6.734c-.084.108-.246-.026-.18-.134Z" fill="#871f58" stroke="#871f58" stroke-width="1"/>
          </g>
          <g id="Group_294" data-name="Group 294" transform="translate(32.317 60.023)">
            <path id="Path_294" data-name="Path 294" d="M9.795,4.749A10.413,10.413,0,0,0,6.614,1.478C5.235.687,3.079.027,1.562.772c-1.768.866-.921,2.614.4,3.361A8.145,8.145,0,0,0,4.4,4.982,8.5,8.5,0,0,0,9.92,4.2c.259-.132.488.253.229.391a8.911,8.911,0,0,1-6.984.547C1.643,4.648-.909,3.173.328,1.208,1.384-.465,4.006-.085,5.569.484c1.86.677,3.863,2.2,4.425,4.181a.11.11,0,0,1-.2.084Z" fill="#871f58" stroke="#871f58" stroke-width="1"/>
          </g>
          <g id="Group_295" data-name="Group 295" transform="translate(28.817 35.536)">
            <path id="Path_295" data-name="Path 295" d="M4.046,12.291c.9.29,1.684-2.788,1.842-3.381a13.162,13.162,0,0,0,.453-3.164,6.326,6.326,0,0,0-.8-3.445C4.833,1.15,3.3-.011,1.964.888.122,2.128.392,5.342.993,7.149a11.155,11.155,0,0,0,3.775,4.984c.2.167-.062.508-.281.365A9.708,9.708,0,0,1,.012,5.1C-.111,3.111.685-.466,3.413.05,6.289.593,7.047,4.074,6.827,6.516c-.073.794-1.378,7.33-2.9,5.975a.119.119,0,0,1,.114-.2Z" fill="#871f58" stroke="#871f58" stroke-width="1"/>
          </g>
          <g id="Group_296" data-name="Group 296" transform="translate(22.039 42.543)">
            <path id="Path_296" data-name="Path 296" d="M11.237,5.5c-1.6-.989-2.81-2.561-4.392-3.61A8.8,8.8,0,0,0,3.813.518C2.283.205.4.808.5,2.7.63,4.976,3.057,6.475,4.97,7.141s4.986.994,6.109-1.128a.187.187,0,0,1,.341.145c-.772,2.436-4.289,2.185-6.219,1.6C3.029,7.1.465,5.554.052,3.116-.43.28,2.547-.476,4.713.269a11.636,11.636,0,0,1,3.331,1.9,16.439,16.439,0,0,1,3.339,3.181c.068.09-.055.2-.145.147Z" fill="#871f58" stroke="#871f58" stroke-width="1"/>
          </g>
          <g id="Group_297" data-name="Group 297" transform="translate(5.021 18.047)">
            <path id="Path_297" data-name="Path 297" d="M15.278,18.367c1-.253,1-2.172,1.088-2.95a28.673,28.673,0,0,0,.2-2.913,27.45,27.45,0,0,0-.514-5.861,12.275,12.275,0,0,0-2-4.946A1.859,1.859,0,0,0,12.481.69c-.864-.057-1.108.281-1.576.961a5.153,5.153,0,0,1-.994,1.258c-1.152.893-2.522.2-3.814.251A2.946,2.946,0,0,0,3.529,5.043,3.406,3.406,0,0,1,2.474,6.388c-.824.591-1.567,1-1.829,2.075a4.6,4.6,0,0,0,.589,3.168A11.42,11.42,0,0,0,4.38,15.384a10.862,10.862,0,0,0,5.234,1.948,14.83,14.83,0,0,1,2.715.587c1.247.442,2.625,1.4,3.579-.128.182-.29.642-.024.462.27-1.167,1.9-2.755.864-4.373.321-2.064-.693-4.289-.556-6.283-1.521C2.863,15.483-1.112,11.31.291,7.835A3.235,3.235,0,0,1,1.627,6.3,3.8,3.8,0,0,0,3.083,4.781a4.809,4.809,0,0,1,.811-1.229A3.239,3.239,0,0,1,5.569,2.7c1.341-.235,2.86.675,4.054-.211,1.09-.809,1.622-3.124,3.449-2.322C14.752.9,15.638,3.383,16.1,4.994a25.608,25.608,0,0,1,.846,8.183,25.415,25.415,0,0,1-.435,3.847c-.147.723-.363,1.455-1.174,1.592-.156.026-.229-.207-.064-.248Z" fill="#871f58" stroke="#871f58" stroke-width="1"/>
          </g>
          <g id="Group_298" data-name="Group 298" transform="translate(14.185 24.281)">
            <path id="Path_298" data-name="Path 298" d="M6.371,12.476a12.676,12.676,0,0,0-1.55-7.037A17.945,17.945,0,0,0,.09.407C-.121.244.077-.121.305.04A16.5,16.5,0,0,1,5.318,5.369C6.463,7.422,7.257,10.177,6.549,12.5a.091.091,0,0,1-.178-.024Z" fill="#871f58" stroke="#871f58" stroke-width="1"/>
          </g>
          <g id="Group_299" data-name="Group 299" transform="translate(12.599 28.76)">
            <path id="Path_299" data-name="Path 299" d="M8.069,7.591C6.451,4.135,3.318,2.116.089.329-.113.217.065-.082.269.021,3.58,1.714,6.862,3.91,8.311,7.487c.057.138-.178.24-.242.1Z" fill="#871f58" stroke="#871f58" stroke-width="1"/>
          </g>
          <g id="Group_300" data-name="Group 300" transform="translate(1.18 28.828)">
            <path id="Path_300" data-name="Path 300" d="M4.774.965a2.592,2.592,0,0,0-3.619.345C.175,2.372.537,3.605.638,4.882c.044.545-.13.884.229,1.31.457.547,1.389.492,2.091.5A18.153,18.153,0,0,0,6.86,6a2.382,2.382,0,0,1,1.91.444A6.562,6.562,0,0,0,12,7.323c2.313.213,4.511,1.3,6.815.446A.233.233,0,0,1,19,8.193a5.573,5.573,0,0,1-3.445.343c-.822-.134-1.62-.372-2.438-.521-.851-.156-1.71-.156-2.561-.284a4.494,4.494,0,0,1-1.493-.457c-.29-.156-.539-.409-.835-.55a2.354,2.354,0,0,0-2.038.031,10.967,10.967,0,0,1-4.571.365C.562,6.969.073,6.8.133,5.722.2,4.438-.3,3.069.285,1.846,1.074.191,3.591-.785,4.925.815a.107.107,0,0,1-.152.149Z" fill="#871f58" stroke="#871f58" stroke-width="1"/>
          </g>
          <g id="Group_301" data-name="Group 301" transform="translate(18.771 15.559)">
            <path id="Path_301" data-name="Path 301" d="M.018,3.506C1.06,1.879,3.625-.451,5.756.076c2.48.616,2.832,3.485,2.733,5.606a22.413,22.413,0,0,1-1.994,8.554c-.728,1.594-1.4,3.236-2.2,4.79a3.8,3.8,0,0,1-2.486,2.218.252.252,0,0,1-.134-.486c1.359-.363,1.968-1.552,2.522-2.733.506-1.075,1-2.154,1.5-3.234A21.772,21.772,0,0,0,7.864,7.566c.2-2.115.666-5.173-1.339-6.593C4.311-.6,1.664,2.165.189,3.64.1,3.728-.053,3.613.018,3.506Z" fill="#871f58" stroke="#871f58" stroke-width="1"/>
          </g>
          <g id="Group_302" data-name="Group 302" transform="translate(7.908 13.116)">
            <path id="Path_302" data-name="Path 302" d="M14.641,2.853A3.323,3.323,0,0,0,9.761.732c-1.09.563-1.915,1.71-3.212,1.825-1.8.158-3.344-1.521-5.015-.031C-.273,4.139.56,6.591,1.8,8.244c.152.2-.187.464-.352.27C.253,7.1-.506,5.012.4,3.251,1.387,1.325,3.157,1.172,5.01,1.8c1.64.561,2.568-.062,3.858-.952A4.261,4.261,0,0,1,11.54,0a3.26,3.26,0,0,1,3.262,2.8c.022.11-.136.156-.16.048Z" fill="#871f58" stroke="#871f58" stroke-width="1"/>
          </g>
          <g id="Group_303" data-name="Group 303" transform="translate(0 17.281)">
            <path id="Path_303" data-name="Path 303" d="M8.187,1.129a3.539,3.539,0,0,0-4.949.389,3.818,3.818,0,0,0-.974,2.5c0,.693.295,1.332.352,2.016A2.086,2.086,0,0,1,1.484,8.049C-.6,9.6,1.133,11.2,2.368,12.543c.143.154-.042.426-.233.3C.948,12.075-.294,10.654.062,9.129A2.433,2.433,0,0,1,1.13,7.73,2.137,2.137,0,0,0,2.036,5.3a5.91,5.91,0,0,1-.182-1.286C1.893.841,5.916-1.38,8.317,1c.086.086-.042.211-.13.132Z" fill="#871f58" stroke="#871f58" stroke-width="1"/>
          </g>
          <g id="Group_304" data-name="Group 304" transform="translate(21.206 22.415)">
            <path id="Path_304" data-name="Path 304" d="M2.779.225c-.893.624-.934,2.258-1.093,3.232-.18,1.108-.314,2.223-.418,3.339a11.381,11.381,0,0,1-.937,4.612c-.095.169-.394.055-.321-.136C.816,9.157.8,6.926,1.132,4.71c.2-1.374.2-3.847,1.528-4.691.13-.079.242.121.119.207Z" fill="#871f58" stroke="#871f58" stroke-width="1"/>
          </g>
          <g id="Group_305" data-name="Group 305" transform="translate(14.578 17.075)">
            <path id="Path_305" data-name="Path 305" d="M2.028.193c-.8.2-.831,1.825-.941,2.462a1.573,1.573,0,0,1-.8,1.288.2.2,0,0,1-.2-.336C1.058,2.917.506.011,2,0a.1.1,0,0,1,.026.193Z" fill="#871f58" stroke="#871f58" stroke-width="1"/>
          </g>
          <g id="Group_306" data-name="Group 306" transform="translate(5.088 21.62)">
            <path id="Path_306" data-name="Path 306" d="M.541.149C-.218,1.3,1.194,2.743.963,3.985.921,4.21.618,4.128.6,3.935c-.108-.921-.475-1.787-.58-2.7A1.358,1.358,0,0,1,.385.028C.461-.051.6.052.541.149Z" fill="#871f58" stroke="#871f58" stroke-width="1"/>
          </g>
          <g id="Group_307" data-name="Group 307" transform="translate(35.148 18.364)">
            <path id="Path_307" data-name="Path 307" d="M1.832,35.61c1.42-2.645,1.644-5.683,1.776-8.629a70.8,70.8,0,0,0-.185-8.956A108.4,108.4,0,0,0,.007.248.2.2,0,0,1,.4.14,74.625,74.625,0,0,1,3.855,18.46a66.982,66.982,0,0,1,.013,9.394A18.127,18.127,0,0,1,1.99,35.7c-.057.1-.215.011-.158-.095Z" fill="#871f58" stroke="#871f58" stroke-width="1"/>
          </g>
          <g id="Group_308" data-name="Group 308" transform="translate(38.722 45.41)">
            <path id="Path_308" data-name="Path 308" d="M.422,3.333c-.075.015.229-.233.251-.248a4.424,4.424,0,0,0,.488-.343,4.607,4.607,0,0,0,.662-.664A4.8,4.8,0,0,0,2.706.157c.066-.277.457-.154.416.114A4.553,4.553,0,0,1,1.561,3.01C1.288,3.241.029,4.2,0,3.3a.163.163,0,0,1,.086-.147.371.371,0,0,1,.336-.033.11.11,0,0,1,0,.211Z" fill="#871f58" stroke="#871f58" stroke-width="1"/>
          </g>
          <g id="Group_309" data-name="Group 309" transform="translate(38.61 45.621)">
            <path id="Path_309" data-name="Path 309" d="M3,.216C1.281.414.639,1.839.4,3.36c-.037.233-.378.158-.391-.053A3.061,3.061,0,0,1,3,0,.107.107,0,0,1,3,.216Z" fill="#871f58" stroke="#871f58" stroke-width="1"/>
          </g>
          <g id="Group_310" data-name="Group 310" transform="translate(36.113 45.817)">
            <path id="Path_310" data-name="Path 310" d="M2.53,3.162C2.03,1.867,1.6.7.124.346-.065.3-.029-.019.171,0c1.513.139,2.4,1.774,2.581,3.131.018.136-.18.139-.222.031Z" fill="#871f58" stroke="#871f58" stroke-width="1"/>
          </g>
          <g id="Group_311" data-name="Group 311" transform="translate(35.859 45.795)">
            <path id="Path_311" data-name="Path 311" d="M3.021,3.061c-.457.747-1.515.224-2.027-.2A2.577,2.577,0,0,1,.125.137C.2-.057.519-.05.514.19a3.09,3.09,0,0,0,.341,1.9c.314.495,1.416,1.46,2.023.86a.091.091,0,0,1,.143.108Z" fill="#871f58" stroke="#871f58" stroke-width="1"/>
          </g>
          <g id="Group_312" data-name="Group 312" transform="translate(35.906 36.479)">
            <path id="Path_312" data-name="Path 312" d="M3.108,4.328C3.341,2.251,1.573,1.226.063.27-.065.189.017-.053.173.011,1.918.74,3.638,2.3,3.31,4.357c-.018.112-.215.088-.2-.029Z" fill="#871f58" stroke="#871f58" stroke-width="1"/>
          </g>
          <g id="Group_313" data-name="Group 313" transform="translate(35.958 36.419)">
            <path id="Path_313" data-name="Path 313" d="M3.476,4.329a1.521,1.521,0,0,1-2.225-.35A5.664,5.664,0,0,1,.013.181a.187.187,0,0,1,.374,0A8.457,8.457,0,0,0,1.02,2.8c.356.849,1.293,2.132,2.344,1.385.088-.064.187.073.112.147Z" fill="#871f58" stroke="#871f58" stroke-width="1"/>
          </g>
          <g id="Group_314" data-name="Group 314" transform="translate(38.972 36.169)">
            <path id="Path_314" data-name="Path 314" d="M.286,4.46a18.69,18.69,0,0,0,2-1.607A3.321,3.321,0,0,0,3.074.182c-.029-.213.317-.251.372-.051A3.789,3.789,0,0,1,1.948,3.8C1.684,4.036.055,5.608,0,4.5c-.007-.158.262-.2.286-.037Z" fill="#871f58" stroke="#871f58" stroke-width="1"/>
          </g>
          <g id="Group_315" data-name="Group 315" transform="translate(39.02 36.181)">
            <path id="Path_315" data-name="Path 315" d="M3.327.2A4.884,4.884,0,0,0,1.282,1.349,6.128,6.128,0,0,0,.321,3.866c-.053.169-.334.147-.321-.044a4.6,4.6,0,0,1,.961-2.64A4.285,4.285,0,0,1,3.272,0,.1.1,0,0,1,3.327.2Z" fill="#871f58" stroke="#871f58" stroke-width="1"/>
          </g>
          <g id="Group_316" data-name="Group 316" transform="translate(33.72 29.767)">
            <path id="Path_316" data-name="Path 316" d="M4.614,3.852C3.542,2.029,2.605.323.2.449a.2.2,0,0,1-.053-.4A3.373,3.373,0,0,1,2.88.816c1,.8,1.273,1.888,1.858,2.966a.071.071,0,0,1-.123.07Z" fill="#871f58" stroke="#871f58" stroke-width="1"/>
          </g>
          <g id="Group_317" data-name="Group 317" transform="translate(33.785 29.966)">
            <path id="Path_317" data-name="Path 317" d="M4.886,3.5A2.262,2.262,0,0,1,2.1,3.663,5.5,5.5,0,0,1,.005.249C-.045.045.271-.109.359.1A8.785,8.785,0,0,0,1.711,2.8a2.335,2.335,0,0,0,3.049.541.1.1,0,0,1,.125.163Z" fill="#871f58" stroke="#871f58" stroke-width="1"/>
          </g>
          <g id="Group_318" data-name="Group 318" transform="translate(38.545 29.259)">
            <path id="Path_318" data-name="Path 318" d="M.155,3.717c.7.347,1.772-.937,2.106-1.418a3.522,3.522,0,0,0,.6-2.135c0-.182.3-.235.328-.044a3.451,3.451,0,0,1-.932,2.774C1.792,3.423.8,4.443.049,3.9a.105.105,0,0,1,.106-.182Z" fill="#871f58" stroke="#871f58" stroke-width="1"/>
          </g>
          <g id="Group_319" data-name="Group 319" transform="translate(38.275 29.205)">
            <path id="Path_319" data-name="Path 319" d="M3.518.2A4.867,4.867,0,0,0,1.39,1.6a6.636,6.636,0,0,0-1.1,2.284A.15.15,0,0,1,0,3.849C-.017,2.035,1.834.4,3.465,0A.1.1,0,0,1,3.518.2Z" fill="#871f58" stroke="#871f58" stroke-width="1"/>
          </g>
          <g id="Group_320" data-name="Group 320" transform="translate(30.924 21.564)">
            <path id="Path_320" data-name="Path 320" d="M5.828,3.533C4.417,1.445,2.775.194.158.383-.02.4-.066.092.114.066,2.8-.354,4.7,1.282,6,3.432c.07.112-.1.209-.174.1Z" fill="#871f58" stroke="#871f58" stroke-width="1"/>
          </g>
          <g id="Group_321" data-name="Group 321" transform="translate(30.768 21.601)">
            <path id="Path_321" data-name="Path 321" d="M6.186,3.208c-.534,1.154-2.08.754-3,.328A6.006,6.006,0,0,1,.009.234C-.055.036.255-.1.347.091a6.6,6.6,0,0,0,1.66,2.2c.756.653,3.159,2.311,4.039.84a.081.081,0,0,1,.141.081Z" fill="#871f58" stroke="#871f58" stroke-width="1"/>
          </g>
          <g id="Group_322" data-name="Group 322" transform="translate(36.992 20.506)">
            <path id="Path_322" data-name="Path 322" d="M.059,4.03C1.892,3.78,2.822,1.825,2.715.163c-.011-.185.3-.231.328-.044.251,1.724-.97,4.133-2.963,4.069-.086,0-.114-.145-.02-.158Z" fill="#871f58" stroke="#871f58" stroke-width="1"/>
          </g>
          <g id="Group_323" data-name="Group 323" transform="translate(36.859 20.45)">
            <path id="Path_323" data-name="Path 323" d="M3,.167A3.6,3.6,0,0,0,.943,1.695,8.938,8.938,0,0,0,.293,3.675C.24,3.867-.028,3.783,0,3.6A5.458,5.458,0,0,1,.9,1.189,3.549,3.549,0,0,1,2.951,0,.085.085,0,0,1,3,.167Z" fill="#871f58" stroke="#871f58" stroke-width="1"/>
          </g>
          <g id="Group_324" data-name="Group 324" transform="translate(34.227 13.773)">
            <path id="Path_324" data-name="Path 324" d="M1.342,5.311c1.64-.139.921-2.451.4-3.251A11.319,11.319,0,0,0,.052.27C-.1.121.122-.088.282.04,1.4.926,2.593,2.093,2.705,3.612c.068.939-.295,1.924-1.361,1.91a.106.106,0,0,1,0-.211Z" fill="#871f58" stroke="#871f58" stroke-width="1"/>
          </g>
          <g id="Group_325" data-name="Group 325" transform="translate(33.42 13.855)">
            <path id="Path_325" data-name="Path 325" d="M.931.114c-.325,1.2-1.546,4.964.791,5.142a.19.19,0,0,1,0,.38C-1.072,5.969.252,1.262.768.044.81-.049.957.02.931.114Z" fill="#871f58" stroke="#871f58" stroke-width="1"/>
          </g>
          <g id="Group_326" data-name="Group 326" transform="translate(47.714 37.523)">
            <path id="Path_326" data-name="Path 326" d="M.019,44.244C5.17,38.5,6.659,30.75,10.055,24.022c1.9-3.773,4.4-7.149,5.967-11.109A44.334,44.334,0,0,0,18.816.171c.02-.224.361-.233.356,0A37.212,37.212,0,0,1,16.55,12.634c-1.565,4.021-4.063,7.431-6.039,11.23C6.984,30.644,5.5,38.631.121,44.345c-.064.066-.163-.035-.1-.1Z" fill="#871f58" stroke="#871f58" stroke-width="1"/>
          </g>
          <g id="Group_327" data-name="Group 327" transform="translate(42.568 17.821)">
            <path id="Path_327" data-name="Path 327" d="M10.388,55.622c1.079-4.779.323-9.706-.211-14.505a146.054,146.054,0,0,0-2.229-14.6Q6.467,19.63,4.778,12.781a36.753,36.753,0,0,0-2.319-6.71A35.255,35.255,0,0,1,.007.221a.181.181,0,0,1,.35-.1c1.33,3.3,3.056,6.488,4.089,9.9,1.1,3.621,1.8,7.387,2.649,11.074A184.091,184.091,0,0,1,10.7,43.143c.442,4.173.932,8.409-.165,12.525-.022.1-.174.057-.152-.046Z" fill="#871f58" stroke="#871f58" stroke-width="1"/>
          </g>
          <g id="Group_328" data-name="Group 328" transform="translate(46.087 16.413)">
            <path id="Path_328" data-name="Path 328" d="M1.569.117C-.419,3.043,1.028,6.583.307,9.8c-.037.167-.328.136-.306-.042C.384,6.556-.614,2.821,1.43.036c.057-.084.2-.007.139.081Z" fill="#871f58" stroke="#871f58" stroke-width="1"/>
          </g>
          <g id="Group_329" data-name="Group 329" transform="translate(47.947 23.664)">
            <path id="Path_329" data-name="Path 329" d="M.545,9.649a9.865,9.865,0,0,1-.121-6.1C.743,2.466,1.681-.466,3.286.063c1.471.486.75,2.893.321,3.841C2.5,6.351.505,8.651.78,11.478c.02.2-.268.209-.328.044-.444-1.22.112-2.513.627-3.627.767-1.66,2.058-3.3,2.519-5.076a2.847,2.847,0,0,0,.053-1.792c-.849-1.455-1.7.048-2,.561A9.5,9.5,0,0,0,.674,4.014,11.475,11.475,0,0,0,.727,9.6a.1.1,0,0,1-.182.053Z" fill="#871f58" stroke="#871f58" stroke-width="1"/>
          </g>
          <g id="Group_330" data-name="Group 330" transform="translate(43.223 28.427)">
            <path id="Path_330" data-name="Path 330" d="M4.776,5.85A12.089,12.089,0,0,0,3.562,1.988,3.9,3.9,0,0,0,2.8,1C2.208.488.678-.47.425,1.473.3,2.41,1.205,3.313,1.9,3.795A25.157,25.157,0,0,1,4.589,5.464c.776.7.767,1.682,1.321,2.515.108.16-.134.341-.266.2-.583-.6-.574-1.458-1.073-2.1A10.091,10.091,0,0,0,1.849,4.257C.788,3.562-.479,2.15.183.768.733-.378,2.14-.085,2.918.631c1.411,1.295,1.732,3.39,2,5.182.011.088-.121.13-.138.037Z" fill="#871f58" stroke="#871f58" stroke-width="1"/>
          </g>
          <g id="Group_331" data-name="Group 331" transform="translate(45.181 38.319)">
            <path id="Path_331" data-name="Path 331" d="M5.337,6.621A9.062,9.062,0,0,0,3.6,2.431a5.571,5.571,0,0,0-1.73-1.7.538.538,0,0,0-.813.011Q.066.763.529,1.822a3.181,3.181,0,0,0,.855,1.422C3.059,4.992,5.836,5.929,6.1,8.69c.02.2-.29.231-.343.046C5.067,6.272,3.134,5.406,1.378,3.814.608,3.117-.7,1.169.465.213c1-.816,2.5.928,3.051,1.581A8.593,8.593,0,0,1,5.5,6.6c.011.09-.145.112-.158.02Z" fill="#871f58" stroke="#871f58" stroke-width="1"/>
          </g>
          <g id="Group_332" data-name="Group 332" transform="translate(49.865 36.46)">
            <path id="Path_332" data-name="Path 332" d="M.46,7.41c-.44-1.7-.811-3.467.112-5.081C1.016,1.553,2.3-.357,3.432.058,4.626.5,3.973,2.411,3.6,3.182,2.625,5.194.794,7.111,1.1,9.479c.029.213-.306.242-.363.048C.066,7.291,2.251,5.027,3.183,3.18c.376-.745,1.17-3.522-.732-2.515A5.33,5.33,0,0,0,.921,2.318C-.108,3.9.209,5.642.624,7.362A.086.086,0,0,1,.46,7.41Z" fill="#871f58" stroke="#871f58" stroke-width="1"/>
          </g>
          <g id="Group_333" data-name="Group 333" transform="translate(47.28 48.332)">
            <path id="Path_333" data-name="Path 333" d="M4.762,4.919A5.643,5.643,0,0,0,3.245,1.63,2.685,2.685,0,0,0,1.609.623C1.082.37.833.577.862,1.239q-.5.544-.057.952a3.2,3.2,0,0,0,.624.73A8.386,8.386,0,0,0,4.146,4.277,1.942,1.942,0,0,1,5.182,5.666c.084.281-.334.387-.433.119C4.294,4.571,3.172,4.6,2.194,4.05A5.5,5.5,0,0,1,.66,2.773C.07,2.054-.418.948.547.311,2.829-1.2,5.076,3.193,5.034,4.919a.136.136,0,0,1-.273,0Z" fill="#871f58" stroke="#871f58" stroke-width="1"/>
          </g>
          <g id="Group_334" data-name="Group 334" transform="translate(51.555 44.146)">
            <path id="Path_334" data-name="Path 334" d="M.208,7.864a11.2,11.2,0,0,1,.409-5.9C1.1.761,2.36-.426,3.745.15c1.279.532,1.174,1.884.629,2.933C3.305,5.138,1.219,6.314.953,8.785a.212.212,0,0,1-.424,0C.364,6.336,2.824,4.918,3.873,3c.33-.6.741-1.46.134-2.126A1.578,1.578,0,0,0,2,.858,3.459,3.459,0,0,0,.779,2.951,16.158,16.158,0,0,0,.4,7.838c.007.108-.174.136-.191.026Z" fill="#871f58" stroke="#871f58" stroke-width="1"/>
          </g>
          <g id="Group_335" data-name="Group 335" transform="translate(37.171 7.164)">
            <path id="Path_335" data-name="Path 335" d="M7.1,7.966a4.136,4.136,0,0,0,1.842.677c1.218.068,1.847-.725,2.181-1.787.422-1.334,1.183-2.623.479-4.023C10.3.245,7.372,1.228,5.09.777,3.951.553,2.652.19,1.555.777.152,1.529.262,3.82.83,5.075a5.055,5.055,0,0,0,3.561,2.8c1.075.07,2.058-.332,3.1.073.273.106.163.547-.123.448-1.134-.389-2.22.119-3.364-.084a3.677,3.677,0,0,1-1.521-.695A5.276,5.276,0,0,1,.023,3.677c-.1-1.255.088-2.645,1.3-3.3C2.674-.362,4.2.172,5.6.419c1.768.312,3.526-.292,5.125.794a3.57,3.57,0,0,1,1.585,3.249,13.064,13.064,0,0,1-.879,2.671,2.755,2.755,0,0,1-.785,1.352c-1.121.915-2.588.378-3.649-.33a.109.109,0,0,1,.11-.189Z" fill="#871f58" stroke="#871f58" stroke-width="1"/>
          </g>
          <g id="Group_336" data-name="Group 336" transform="translate(42.723 11.029)">
            <path id="Path_336" data-name="Path 336" d="M1.255,4.039A5.182,5.182,0,0,1,0,.159a.165.165,0,0,1,.33,0c.114,1.334.123,2.671,1.1,3.709a.121.121,0,0,1-.171.171Z" fill="#871f58" stroke="#871f58" stroke-width="1"/>
          </g>
          <g id="Group_337" data-name="Group 337" transform="translate(34.496 10.861)">
            <path id="Path_337" data-name="Path 337" d="M8.55,4.231A1.386,1.386,0,0,1,7.239,6.3c-1.726.139-3.555-.908-4.927-1.831-.888-.6-2.53-1.823-2.289-3.1C.259.122,2-.188,3,.1c.213.062.182.433-.055.4a3.455,3.455,0,0,0-1.3.013C1.048.57.8.913.9,1.542a.916.916,0,0,0,.253,1.345,8.121,8.121,0,0,0,2.036,1.6c1.268.752,5.267,2.88,5.223-.235a.071.071,0,0,1,.139-.02Z" fill="#871f58" stroke="#871f58" stroke-width="1"/>
          </g>
          <g id="Group_338" data-name="Group 338" transform="translate(33.077 0)">
            <path id="Path_338" data-name="Path 338" d="M9.382,7.791c.541-2.007.761-4.39-.473-6.215A2.112,2.112,0,0,0,5.9.826c-.6.38-1.075.934-1.695,1.288a5.842,5.842,0,0,1-1.862.554C1.49,2.831.6,2.968.446,4.216A5.089,5.089,0,0,0,.67,5.689c.453,1.858,1.6,4.146,3.614,4.615.191.044.154.365-.048.35C2,10.489.705,7.705.241,5.808.01,4.867-.269,3.651.534,2.917c.93-.853,2.385-.583,3.449-1.176C4.865,1.251,5.5.321,6.518.064a2.5,2.5,0,0,1,2.493.952,6.735,6.735,0,0,1,.539,6.846c-.048.092-.193.026-.167-.07Z" fill="#871f58" stroke="#871f58" stroke-width="1"/>
          </g>
          <g id="Group_339" data-name="Group 339" transform="translate(31.53 6.079)">
            <path id="Path_339" data-name="Path 339" d="M2.21.149C1.772.9,1.13,1.563.739,2.336a2.456,2.456,0,0,0,2.15,3.485c.279.026.29.451,0,.442A3.082,3.082,0,0,1,.049,3.955C-.274,2.4,1.078,1.053,2.058.028c.075-.079.207.024.152.121Z" fill="#871f58" stroke="#871f58" stroke-width="1"/>
          </g>
          <g id="Group_340" data-name="Group 340" transform="translate(42.798 0.451)">
            <path id="Path_340" data-name="Path 340" d="M.006,2.581A2.921,2.921,0,0,1,1.531,1.006C2.492.565,3.552.778,4.545.468c1.8-.563,3.74-.923,5.083.774,2.251,2.845-1.337,6.94-4.3,7.158a.2.2,0,0,1-.053-.385A6.173,6.173,0,0,0,8.7,6.021C9.773,4.706,10.389,2.539,9,1.215A3.286,3.286,0,0,0,6.57.38a15.637,15.637,0,0,0-2.392.655c-.668.136-1.365.011-2.027.174A3.713,3.713,0,0,0,.164,2.671c-.057.075-.193,0-.158-.09Z" fill="#871f58" stroke="#871f58" stroke-width="1"/>
          </g>
          <g id="Group_341" data-name="Group 341" transform="translate(47.607 6.551)">
            <path id="Path_341" data-name="Path 341" d="M4.3.007c1.354.6,3.153-.149,4.14,1.242a3.368,3.368,0,0,1-.174,3.61A7.564,7.564,0,0,1,4.912,7.827,8.287,8.287,0,0,1,.144,8.8.2.2,0,0,1,.2,8.4,8.759,8.759,0,0,0,7.7,4.93C8.7,3.426,8.9,1,6.572.711A4.154,4.154,0,0,1,4.2.137c-.077-.064.024-.165.1-.13Z" fill="#871f58" stroke="#871f58" stroke-width="1"/>
          </g>
          <g id="Group_342" data-name="Group 342" transform="translate(49.629 10.095)">
            <path id="Path_342" data-name="Path 342" d="M2.466.134A4.254,4.254,0,0,1,.241,2.724C.057,2.8-.1,2.555.081,2.449A4.732,4.732,0,0,0,2.253.075c.051-.13.259-.079.213.059Z" fill="#871f58" stroke="#871f58" stroke-width="1"/>
          </g>
          <g id="Group_343" data-name="Group 343" transform="translate(37.252 5.125)">
            <path id="Path_343" data-name="Path 343" d="M2.342,2.346A3.369,3.369,0,0,1,.014.226C-.061.055.181-.1.271.077A3.61,3.61,0,0,0,2.4,2.148a.1.1,0,0,1-.055.2Z" fill="#871f58" stroke="#871f58" stroke-width="1"/>
          </g>
          <g id="Group_344" data-name="Group 344" transform="translate(60.832 46.901)">
            <path id="Path_344" data-name="Path 344" d="M1.022,7.7c.336-1.469.8-2.8.312-4.294C.974,2.313.274,1.372.006.237a.193.193,0,0,1,.372-.1C.813,1.455,1.692,2.673,1.906,4.065a6.92,6.92,0,0,1-.677,3.724c-.053.123-.233.033-.207-.086Z" fill="#871f58" stroke="#871f58" stroke-width="1"/>
          </g>
          <g id="Group_345" data-name="Group 345" transform="translate(59.013 53.068)">
            <path id="Path_345" data-name="Path 345" d="M.46,5.689C1.335,4.027.468,1.866.007.2A.162.162,0,0,1,.319.112c.594,1.677,1.334,4.017.3,5.67a.093.093,0,0,1-.16-.092Z" fill="#871f58" stroke="#871f58" stroke-width="1"/>
          </g>
          <g id="Group_346" data-name="Group 346" transform="translate(55.098 57.391)">
            <path id="Path_346" data-name="Path 346" d="M1.475,6.649a4.871,4.871,0,0,0-.361-3.995A12.046,12.046,0,0,1,.006.21.171.171,0,0,1,.336.12c.385,1.2,1.172,2.234,1.524,3.443a4.878,4.878,0,0,1-.226,3.131c-.037.095-.191.057-.158-.044Z" fill="#871f58" stroke="#871f58" stroke-width="1"/>
          </g>
          <g id="Group_347" data-name="Group 347" transform="translate(56.842 61.864)">
            <path id="Path_347" data-name="Path 347" d="M.015,2.128A4.483,4.483,0,0,1,4.229.022c.189.02.2.31,0,.3A4.647,4.647,0,0,0,.166,2.216C.1,2.3-.047,2.225.015,2.128Z" fill="#871f58" stroke="#871f58" stroke-width="1"/>
          </g>
          <g id="Group_348" data-name="Group 348" transform="translate(59.738 56.408)">
            <path id="Path_348" data-name="Path 348" d="M.022,1.818A4.094,4.094,0,0,1,4.406.156a.136.136,0,0,1-.073.262C2.526-.029,1.462.879.137,1.932a.081.081,0,0,1-.114-.114Z" fill="#871f58" stroke="#871f58" stroke-width="1"/>
          </g>
          <g id="Group_349" data-name="Group 349" transform="translate(62.416 51.537)">
            <path id="Path_349" data-name="Path 349" d="M0,2.217c.139-.651.616-.875,1.207-1.086C2.377.714,3.581.333,4.78.008a.185.185,0,0,1,.1.356c-.767.262-1.55.479-2.328.7C1.8,1.285.462,1.439.156,2.259A.08.08,0,0,1,0,2.217Z" transform="translate(0)" fill="#871f58" stroke="#871f58" stroke-width="1"/>
          </g>
          <g id="Group_350" data-name="Group 350" transform="translate(65.019 42.892)">
            <path id="Path_350" data-name="Path 350" d="M.02,4.3A4.7,4.7,0,0,1,2.1,2.684,4.217,4.217,0,0,0,4.523.132a.187.187,0,0,1,.361.1A3.592,3.592,0,0,1,3.54,2.291c-1.075.809-2.5.97-3.311,2.137C.141,4.553-.065,4.438.02,4.3Z" fill="#871f58" stroke="#871f58" stroke-width="1"/>
          </g>
          <g id="Group_351" data-name="Group 351" transform="translate(63.587 39.171)">
            <path id="Path_351" data-name="Path 351" d="M1.664,8.011C1.82,5.254-.425,2.9.072.126A.176.176,0,0,1,.417.172C.182,2.929,2.134,5.259,1.868,8.009c-.013.13-.211.134-.2,0Z" fill="#871f58" stroke="#871f58" stroke-width="1"/>
          </g>
          <g id="Group_352" data-name="Group 352" transform="translate(65.667 22.464)">
            <path id="Path_352" data-name="Path 352" d="M1.06,15.635C3.8,15.556,5.033,11.7,5.583,9.523A36.913,36.913,0,0,0,6.293,5.9c.218-1.469.543-3.689-.622-4.843-1.486-1.473-3.359.088-4,1.592A16.4,16.4,0,0,0,.724,7.14a34.377,34.377,0,0,0-.215,3.893c0,1.128-.323,3.911.9,4.458.262.117.035.492-.224.383C-.059,15.34.091,13.452.036,12.335a32.41,32.41,0,0,1,.3-6.123C.577,4.487.814,2.444,2.05,1.1A2.931,2.931,0,0,1,5.336.206C8.3,1.521,6.631,7.2,6.077,9.464c-.5,2.04-2.086,7.119-5.043,6.4a.114.114,0,0,1,.026-.224Z" fill="#871f58" stroke="#871f58" stroke-width="1"/>
          </g>
          <g id="Group_353" data-name="Group 353" transform="translate(62.55 34.671)">
            <path id="Path_353" data-name="Path 353" d="M1.805,7.952a4.249,4.249,0,0,0-.6-4.658A4.5,4.5,0,0,1,.018.207a.214.214,0,0,1,.429,0C.489,2.054,1.955,3.05,2.535,4.676A3.7,3.7,0,0,1,2.076,8.11a.157.157,0,0,1-.27-.158Z" fill="#871f58" stroke="#871f58" stroke-width="1"/>
          </g>
          <g id="Group_354" data-name="Group 354" transform="translate(62.224 34.753)">
            <path id="Path_354" data-name="Path 354" d="M.6.07A5.83,5.83,0,0,1,.773,3.444,4.736,4.736,0,0,0,.555,5.781,3.852,3.852,0,0,0,1.912,7.608c.18.16-.055.462-.257.334A3.411,3.411,0,0,1,.006,5.37,5.653,5.653,0,0,1,.327,3.513,6.252,6.252,0,0,0,.406.123.1.1,0,0,1,.6.07Z" fill="#871f58" stroke="#871f58" stroke-width="1"/>
          </g>
          <g id="Group_355" data-name="Group 355" transform="translate(58.854 42.248)">
            <path id="Path_355" data-name="Path 355" d="M3.251,7.168c1.436-.8.849-2.552-.057-3.524A13.551,13.551,0,0,0,1.9,2.505,5.575,5.575,0,0,1,.01.216C-.058.034.239-.091.324.085c.824,1.686,2.625,2.409,3.623,3.944.736,1.132.78,2.744-.631,3.3-.092.033-.149-.112-.066-.158Z" fill="#871f58" stroke="#871f58" stroke-width="1"/>
          </g>
          <g id="Group_356" data-name="Group 356" transform="translate(59.048 42.41)">
            <path id="Path_356" data-name="Path 356" d="M.169.046A7.436,7.436,0,0,1,.7,2.794C.719,3.331.708,3.867.728,4.4c.018.466.1,3.458,1.57,2.574a.173.173,0,0,1,.209.27C1.715,8.064.814,7.2.561,6.36-.048,4.335.673,2.159,0,.114-.028.02.128-.05.169.046Z" fill="#871f58" stroke="#871f58" stroke-width="1"/>
          </g>
          <g id="Group_357" data-name="Group 357" transform="translate(57.964 50.133)">
            <path id="Path_357" data-name="Path 357" d="M1.48,4.416C3.553,2.9.218,1.77,0,.231a.185.185,0,0,1,.356-.1C.732,1.323,2.181,1.7,2.52,2.9a1.383,1.383,0,0,1-.961,1.715c-.119.046-.169-.13-.079-.2Z" fill="#871f58" stroke="#871f58" stroke-width="1"/>
          </g>
          <g id="Group_358" data-name="Group 358" transform="translate(57.792 49.999)">
            <path id="Path_358" data-name="Path 358" d="M.533.084C.5.88.467,1.675.42,2.469A5.794,5.794,0,0,0,.4,3.364c.09.945.631,1.249,1.458,1.42.233.048.154.367-.053.389C-.877,5.444.168,1.517.366.062c.013-.1.171-.073.167.022Z" fill="#871f58" stroke="#871f58" stroke-width="1"/>
          </g>
          <g id="Group_359" data-name="Group 359" transform="translate(53.782 54.538)">
            <path id="Path_359" data-name="Path 359" d="M2.29,5.165c.448-.066.675-.622.662-1a3.1,3.1,0,0,0-.163-.822A3.37,3.37,0,0,0,1.63,1.788,6.424,6.424,0,0,1,.028.3C-.089.115.192-.112.335.062,1.27,1.188,2.7,1.748,3.167,3.237c.244.769.33,2.256-.849,2.137-.108-.011-.156-.189-.029-.209Z" fill="#871f58" stroke="#871f58" stroke-width="1"/>
          </g>
          <g id="Group_360" data-name="Group 360" transform="translate(53.62 54.531)">
            <path id="Path_360" data-name="Path 360" d="M.4.062A3.868,3.868,0,0,1,.769,2.056C.743,2.41.585,2.753.563,3.1A1.494,1.494,0,0,0,1.921,4.835c.218.053.143.336-.048.361a1.924,1.924,0,0,1-1.79-1.1A2.376,2.376,0,0,1,.2,2.641,5.631,5.631,0,0,0,.174.159C.15.029.336-.07.4.062Z" fill="#871f58" stroke="#871f58" stroke-width="1"/>
          </g>
          <g id="Group_361" data-name="Group 361" transform="translate(68.082 37.781)">
            <path id="Path_361" data-name="Path 361" d="M.156,7.362c4.065.7,3.544-4.949,4.68-7.272.09-.185.4-.055.332.141-.624,1.893-.6,4.115-1.664,5.839A3.016,3.016,0,0,1,.09,7.6a.125.125,0,0,1,.066-.242Z" fill="#871f58" stroke="#871f58" stroke-width="1"/>
          </g>
          <g id="Group_362" data-name="Group 362" transform="translate(67.421 37.789)">
            <path id="Path_362" data-name="Path 362" d="M5.456.147C4.268,2.3-1.006,3.739.826,6.789c.119.2-.176.444-.33.255a2.58,2.58,0,0,1,.1-3.157C1.811,2.192,4.15,1.842,5.288.046a.1.1,0,0,1,.167.1Z" fill="#871f58" stroke="#871f58" stroke-width="1"/>
          </g>
          <g id="Group_363" data-name="Group 363" transform="translate(64.292 49.068)">
            <path id="Path_363" data-name="Path 363" d="M.273,3.64c.4,1.378,2.062.789,2.785.323a3.6,3.6,0,0,0,1.409-1.77c.286-.776.321-1.581.978-2.15.145-.125.42.046.286.22a11.623,11.623,0,0,0-.976,2.385A3.973,3.973,0,0,1,3.126,4.385C2.122,4.952.26,5.24,0,3.712a.14.14,0,0,1,.27-.073Z" fill="#871f58" stroke="#871f58" stroke-width="1"/>
          </g>
          <g id="Group_364" data-name="Group 364" transform="translate(64.141 48.995)">
            <path id="Path_364" data-name="Path 364" d="M5.915.14A4.142,4.142,0,0,1,3.427,1.228c-.556.068-1.159-.055-1.7.029A.628.628,0,0,0,.912,1.7a.69.69,0,0,0-.453.831c-.064.222-.042.547-.095.78a.182.182,0,0,1-.356-.048C0,2.369-.139,1.125.973.85A12.181,12.181,0,0,1,3.088.888,5.3,5.3,0,0,0,5.816.013c.077-.051.165.064.1.128Z" fill="#871f58" stroke="#871f58" stroke-width="1"/>
          </g>
          <g id="Group_365" data-name="Group 365" transform="translate(61.651 55.389)">
            <path id="Path_365" data-name="Path 365" d="M.058,1.485C-.331.68,1.351.058,1.9.01,3.665-.147,3.92,1.645,5.007,2.626c.178.16-.057.475-.259.336A4.85,4.85,0,0,1,3.391,1.274,1.6,1.6,0,0,0,1.553.528c-.284.075-1.361.51-1.33.91a.089.089,0,0,1-.165.046Z" fill="#871f58" stroke="#871f58" stroke-width="1"/>
          </g>
          <g id="Group_366" data-name="Group 366" transform="translate(61.695 56.688)">
            <path id="Path_366" data-name="Path 366" d="M4.533,1.533c-.706-.607-1.583,0-2.341.077a2.819,2.819,0,0,1-1.057-.09C.5,1.344-.068.937.007.22a.229.229,0,0,1,.457,0,1.309,1.309,0,0,0,.93.862,2.662,2.662,0,0,0,.734.07C2.559,1.137,2.97.968,3.4.928a1.4,1.4,0,0,1,1.288.446.11.11,0,0,1-.154.158Z" fill="#871f58" stroke="#871f58" stroke-width="1"/>
          </g>
          <g id="Group_367" data-name="Group 367" transform="translate(59.512 60.601)">
            <path id="Path_367" data-name="Path 367" d="M0,1.612A1.719,1.719,0,0,1,1.77,0,3.3,3.3,0,0,1,4.5,1.744c.125.2-.171.442-.336.259A4.34,4.34,0,0,0,2.476.6,1.617,1.617,0,0,0,.271,1.65.138.138,0,0,1,0,1.612Z" fill="#871f58" stroke="#871f58" stroke-width="1"/>
          </g>
          <g id="Group_368" data-name="Group 368" transform="translate(59.911 62.005)">
            <path id="Path_368" data-name="Path 368" d="M3.869.644C3.625.184,2.547,1.356,2.3,1.53a1.37,1.37,0,0,1-.989.255A1.519,1.519,0,0,1,.006.2.208.208,0,0,1,.413.147,2.119,2.119,0,0,0,.8.993a1,1,0,0,0,1.389.037A4.453,4.453,0,0,1,3.007.446c.358-.158.871-.339,1.029.128a.092.092,0,0,1-.167.07Z" fill="#871f58" stroke="#871f58" stroke-width="1"/>
          </g>
        </g>
      </g>
    </g>
  </g>
</svg>
