<svg xmlns="http://www.w3.org/2000/svg" xmlns:xlink="http://www.w3.org/1999/xlink" width="445" height="464" viewBox="0 0 445 464">
  <defs>
    <clipPath id="clip-path">
      <rect width="425" height="412" fill="none"/>
    </clipPath>
    <clipPath id="clip-footer">
      <rect width="445" height="464"/>
    </clipPath>
  </defs>
  <g id="footer" clip-path="url(#clip-footer)">
    <rect width="445" height="464" fill="#fff"/>
    <g id="Group_451" data-name="Group 451" transform="translate(-9)">
      <g id="Repeat_Grid_8" data-name="Repeat Grid 8" transform="translate(-6 2)" opacity="0.1" clip-path="url(#clip-path)">
        <g transform="translate(-61 -89)">
          <path id="Path_897" data-name="Path 897" d="M17,0A17,17,0,1,1,0,17,17,17,0,0,1,17,0Z" transform="translate(77 89)" fill="#19807a"/>
          <circle id="Ellipse_70" data-name="Ellipse 70" cx="17" cy="17" r="17" transform="translate(226 89)" fill="#ef008b"/>
          <path id="Path_896" data-name="Path 896" d="M17,0A17,17,0,1,1,0,17,17,17,0,0,1,17,0Z" transform="translate(141 203)" fill="#707070"/>
          <circle id="Ellipse_72" data-name="Ellipse 72" cx="17" cy="17" r="17" transform="translate(301 203)" fill="#871f58"/>
        </g>
        <g transform="translate(233 -89)">
          <path id="Path_897-2" data-name="Path 897" d="M17,0A17,17,0,1,1,0,17,17,17,0,0,1,17,0Z" transform="translate(77 89)" fill="#19807a"/>
          <circle id="Ellipse_70-2" data-name="Ellipse 70" cx="17" cy="17" r="17" transform="translate(226 89)" fill="#ef008b"/>
          <path id="Path_896-2" data-name="Path 896" d="M17,0A17,17,0,1,1,0,17,17,17,0,0,1,17,0Z" transform="translate(141 203)" fill="#707070"/>
          <circle id="Ellipse_72-2" data-name="Ellipse 72" cx="17" cy="17" r="17" transform="translate(301 203)" fill="#871f58"/>
        </g>
        <g transform="translate(-61 139)">
          <path id="Path_897-3" data-name="Path 897" d="M17,0A17,17,0,1,1,0,17,17,17,0,0,1,17,0Z" transform="translate(77 89)" fill="#19807a"/>
          <circle id="Ellipse_70-3" data-name="Ellipse 70" cx="17" cy="17" r="17" transform="translate(226 89)" fill="#ef008b"/>
          <path id="Path_896-3" data-name="Path 896" d="M17,0A17,17,0,1,1,0,17,17,17,0,0,1,17,0Z" transform="translate(141 203)" fill="#707070"/>
          <circle id="Ellipse_72-3" data-name="Ellipse 72" cx="17" cy="17" r="17" transform="translate(301 203)" fill="#871f58"/>
        </g>
        <g transform="translate(233 139)">
          <path id="Path_897-4" data-name="Path 897" d="M17,0A17,17,0,1,1,0,17,17,17,0,0,1,17,0Z" transform="translate(77 89)" fill="#19807a"/>
          <circle id="Ellipse_70-4" data-name="Ellipse 70" cx="17" cy="17" r="17" transform="translate(226 89)" fill="#ef008b"/>
          <path id="Path_896-4" data-name="Path 896" d="M17,0A17,17,0,1,1,0,17,17,17,0,0,1,17,0Z" transform="translate(141 203)" fill="#707070"/>
          <circle id="Ellipse_72-4" data-name="Ellipse 72" cx="17" cy="17" r="17" transform="translate(301 203)" fill="#871f58"/>
        </g>
      </g>
      <rect id="Rectangle_60" data-name="Rectangle 60" width="454" height="469" fill="none"/>
    </g>
  </g>
</svg>
