<svg id="Flat_copy_5" xmlns="http://www.w3.org/2000/svg" width="60.973" height="60.973" viewBox="0 0 60.973 60.973">
  <g id="Group_12" data-name="Group 12">
    <path id="Path_5" data-name="Path 5" d="M30.486,0A30.486,30.486,0,1,0,60.973,30.486,30.485,30.485,0,0,0,30.486,0Z" fill="#4f9a30"/>
  </g>
  <path id="Path_6" data-name="Path 6" d="M34.853,7.93H11.771a3.788,3.788,0,0,0-3.847,3.847v23.08A3.788,3.788,0,0,0,11.771,38.7h23.08A3.788,3.788,0,0,0,38.7,34.857V11.777A3.785,3.785,0,0,0,34.853,7.93ZM23.335,17.272a5.99,5.99,0,1,1-6.177,5.987A6.086,6.086,0,0,1,23.335,17.272ZM34.853,33.895c0,.675-.288.962-.962.962H12.733c-.673,0-.962-.288-.962-.962V20.431l2.4.522a8.954,8.954,0,0,0-.4,2.639,9.421,9.421,0,0,0,9.561,9.266A9.419,9.419,0,0,0,32.9,23.592a8.954,8.954,0,0,0-.4-2.639l2.351-.522V33.895Zm0-17.311a.962.962,0,0,1-.962.962H30.044a.962.962,0,0,1-.962-.962V12.737a.962.962,0,0,1,.962-.962h3.847a.962.962,0,0,1,.962.962v3.847Z" transform="translate(7.174 7.18)" fill="#fff"/>
</svg>
