<svg xmlns="http://www.w3.org/2000/svg" width="147.017" height="147.014" viewBox="0 0 147.017 147.014">
  <g id="Icons" transform="translate(-29.068 -5.336)">
    <g id="Group_454" data-name="Group 454" transform="translate(7.731 5.336)">
      <g id="Group_453" data-name="Group 453" transform="translate(21.337)">
        <path id="Path_1088" data-name="Path 1088" d="M118.615,5.336H50.876A39.682,39.682,0,0,0,11.24,44.975v67.739A39.679,39.679,0,0,0,50.876,152.35h67.739a39.681,39.681,0,0,0,39.641-39.636V44.975A39.685,39.685,0,0,0,118.615,5.336ZM84.748,114.757a35.915,35.915,0,1,1,35.915-35.913A35.955,35.955,0,0,1,84.748,114.757ZM23.406,95.919V88.727a1.859,1.859,0,0,1,3.718,0v7.193a1.859,1.859,0,0,1-3.718,0Zm3.718-41.036V78.845a1.859,1.859,0,0,1-3.718,0V54.883a1.859,1.859,0,1,1,3.718,0ZM129.739,40.216a4.894,4.894,0,1,1,4.895-4.894A4.894,4.894,0,0,1,129.739,40.216Z" transform="translate(-11.24 -5.336)"/>
      </g>
    </g>
  </g>
</svg>
