<svg xmlns="http://www.w3.org/2000/svg" width="196.043" height="196.042" viewBox="0 0 196.043 196.042">
  <g id="Intagram" transform="translate(0)">
    <g id="Group_12" data-name="Group 12" transform="translate(0)">
      <path id="Path_5" data-name="Path 5" d="M98.021,0a98.021,98.021,0,1,0,98.021,98.021A98.018,98.018,0,0,0,98.021,0Z"/>
    </g>
    <path id="Path_6" data-name="Path 6" d="M94.507,7.93H20.293A12.179,12.179,0,0,0,7.924,20.3V94.507a12.179,12.179,0,0,0,12.369,12.369H94.5A12.179,12.179,0,0,0,106.87,94.507V20.3A12.17,12.17,0,0,0,94.507,7.93ZM57.474,37.967c10.972,0,19.868,8.62,19.868,19.249s-8.9,19.249-19.868,19.249S37.612,67.839,37.612,57.216,46.508,37.967,57.474,37.967ZM94.507,91.413c0,2.169-.925,3.094-3.094,3.094H23.387c-2.163,0-3.094-.925-3.094-3.094V48.125L28,49.8a28.79,28.79,0,0,0-1.274,8.485c0,16.443,13.772,29.792,30.742,29.792S88.216,74.738,88.216,58.288A28.79,28.79,0,0,0,86.941,49.8l7.56-1.679V91.413Zm0-55.658a3.093,3.093,0,0,1-3.094,3.094H79.045a3.093,3.093,0,0,1-3.094-3.094V23.387a3.093,3.093,0,0,1,3.094-3.094H91.414a3.093,3.093,0,0,1,3.094,3.094V35.756Z" transform="translate(40.621 40.652)" fill="#fff"/>
  </g>
</svg>
