<svg xmlns="http://www.w3.org/2000/svg" width="1065.522" height="434.856" viewBox="0 0 1065.522 434.856">
  <g id="Group_394" data-name="Group 394" transform="translate(-55.315 -128.612)">
    <path id="Path_893" data-name="Path 893" d="M148.3-274.376c-2.1.3-5.1-2.1-6.9-5.1-1.8-2.7-1.5-5.1.6-5.1,34.5-1.5,73.8-20.1,103.2-43.2,14.4-11.1,26.1-23.1,33.6-34.8,7.5-11.1,10.8-21.3,8.7-29.4a12.937,12.937,0,0,0-3.9-5.7,12.514,12.514,0,0,0-4.8-2.7c-18-7.2-51.6,0-87.9,18.6-36.9,18.9-84.9,46.2-133.2,111-13.8,18.6-26.1,38.1-34.8,59.4-12,29.4-14.7,55.2-8.7,74.1,3.3,10.5,9.6,18.6,18.6,23.4,11.1,5.4,26.1,7.2,44.7,4.2,44.1-7.2,107.4-41.7,186.9-115.2,1.2-.9,4.2.3,6.6,2.7,2.4,2.7,3.3,5.7,2.1,6.9-80.1,74.1-143.7,108.6-188.7,116.1-20.1,3.3-36.9.9-49.8-5.7-14.7-7.5-24.9-19.8-30-36-6.3-20.7-3.6-48.3,8.7-78.9,8.7-21.6,21.6-41.4,35.4-60.3,48.6-65.1,96.9-92.7,134.1-111.6,37.5-19.2,72.9-26.7,93.3-18.3a45.655,45.655,0,0,1,9,5.1c6,4.8,9.9,10.5,11.7,16.8,3,10.2-.6,22.2-8.7,34.5-7.8,11.7-19.8,24.3-34.2,35.4C223.9-294.777,183.7-275.576,148.3-274.376Zm123.9,42c1.2-.9,4.2.3,6.6,3s3,5.7,1.8,6.9a16.639,16.639,0,0,0-2.4,1.8c-6.3,5.7-11.4,15-14.7,24.3-2.4,7.8-3.6,15-2.1,18a9.13,9.13,0,0,0,5.7,0,23.532,23.532,0,0,0,9-5.7c4.2-3.6,8.1-9,11.7-15.9a61.511,61.511,0,0,0,4.8-12.3,42.681,42.681,0,0,1-11.7-15.3,32.115,32.115,0,0,1-3-14.7c.6-4.2,2.4-7.2,6-7.8a13.035,13.035,0,0,1,7.5,1.5,22.084,22.084,0,0,1,9.3,10.2,32.375,32.375,0,0,1,3.3,10.8,46.4,46.4,0,0,1,0,12.9c6.6,1.2,16.5,2.4,27-3.6,1.5-.9,3-2.1,5.4.6,2.1,2.7,1.8,4.8.3,5.7-14.1,7.8-24.6,9-33.9,5.7a53.439,53.439,0,0,1-5.7,15c-3.6,6.9-7.8,12.9-12.3,16.8-3.6,3-6.9,5.4-10.2,6.3a14.656,14.656,0,0,1-11.7-1.2,22.251,22.251,0,0,1-6-4.8l-1.8-1.8c-4.8-6.9-4.5-18-1.2-28.5,3.3-9.9,9-19.8,15.6-25.8C270.4-230.876,271.3-231.776,272.2-232.376Zm21.9,12.9a50.725,50.725,0,0,0,0-13.5,27.042,27.042,0,0,0-1.5-6.6h.3a2.46,2.46,0,0,0-2.1,0c-1.8,0-2.7,1.8-3,4.5a18.307,18.307,0,0,0,1.8,9.3A15.32,15.32,0,0,0,294.1-219.476Zm78,9c-.9,1.8-3.6,1.2-6-1.2-2.7-2.4-4.2-5.7-3.6-7.2.3,0,5.1-10.5,3.9-10.5-5.7-.3-18,7.8-27.3,18.3a67.769,67.769,0,0,0-9,12.3,30.834,30.834,0,0,0-3.6,11.7c0,2.7.6,5.1,2.1,6.6,12.6,11.1,74.1-35.1,74.4-35.1,1.2-.3,3.9-3.9,6-3.3,2.4,2.7,3.3,5.7,2.1,6.9-.3,0-65.1,55.5-85.2,37.5-6.6-6-9.3-12.6-9-19.2a29.107,29.107,0,0,1,3.9-13.8,73.558,73.558,0,0,1,9.3-12.9c9.9-11.1,23.4-19.8,30.3-19.5C385.9-238.976,372.1-210.476,372.1-210.476Zm53.1-30.6c1.5-1.2,4.5,0,6.9,2.7s3.3,5.7,1.8,6.9c-6.6,5.7-17.4,18.6-24,31.2-4.2,8.4-3.9,13.2-.9,14.7,12.3,1.8,45.6-30.6,45.6-30.9,1.2-1.2,3.3-3.6,5.7-.9,2.7,2.7,1.5,3.6.3,4.8-.3,0-50.1,54-63,31.5-4.2-7.5-2.1-17.7,3-27.9C407.2-221.876,418.3-235.376,425.2-241.076Zm18.6-8.7c-1.2,1.5-4.2.3-6.6-2.1-2.4-2.7-3.6-5.7-2.4-7.2l16.8-19.2c1.2-1.5,3.9-.3,6.6,2.1,2.4,2.7,3.3,5.7,2.4,7.2Zm20.4,15.3c.9-1.5,3.9-.9,6.3,1.5,2.7,2.4,3.9,5.7,3,7.2l-7.5,13.5c16.2-13.5,33.9-26.7,40.5-24.9h.6c9,2.7,10.5,8.4,8.4,15.9-.9,3.3-3,7.2-5.1,11.7-3.9,7.8-8.4,16.5-8.4,16.5,9.6,6.3,42-22.2,42.3-22.2.9-1.2,4.2-5.1,6.6-2.4,2.7,2.4.9,3-.3,4.5,0,0-32.7,38.7-48.3,28.5-13.5-8.7-6.9-21.9-1.2-33.6a76.709,76.709,0,0,0,3.3-7.2c-17.1,9-57,47.1-58.2,48.3-.9,1.2-3.6.3-6-1.8-2.4-2.7-3.9-5.7-3-7.2Zm130.5,11.7c1.2,3,.3,4.8-2.1,4.2s-5.4-3.3-6.6-6c-6-5.7-20.7,1.2-26.1,5.7-11.1,9-17.4,19.8-20.7,33.6,10.5-3,37.8-34.8,37.8-34.8,1.2-1.2,3.9-.3,6.6,2.4,2.1,2.4,3.3,5.1,2.4,6.6-.6,1.5-4.2,9.3-2.4,17.7,1.2,7.2,40.2-25.5,40.8-25.8,1.2-1.2,3.6-2.7,6-.3,2.4,2.7,2.1,5.1.9,6.3-19.8,17.7-31.5,28.2-39.6,32.4-13.8,7.2-24.3,3-24-11.7-10.8,10.2-21.9,19.5-28.5,16.5-2.4-.9-4.2-2.7-6-4.5a16.457,16.457,0,0,1-3.6-12.6,34.775,34.775,0,0,1,3.3-11.4,71.138,71.138,0,0,1,18.6-24C565-239.576,589.6-240.176,594.7-222.776Zm465-153.3c2.4.6,5.4,3.3,6.6,6.3,1.2,2.7.3,4.5-2.1,4.2-20.4-4.5-59.4-7.8-103.5-3,15.6,9.3,27.3,21.9,33.9,37.8,10.5,26.4,5.4,62.1-24,107.7-23.4,36.3-57.9,63-93.3,79.2,38.7-3.9,80.4-1.5,114,17.1,2.7,1.5,5.1,4.5,5.4,7.2.3,2.4-1.5,3-4.2,1.5-83.4-46.2-225.3,14.7-225.6,14.7-1.8.9-4.8-.9-6.9-3.6-2.4-3-2.7-5.7-.9-6.3,0-.3,13.5-6,34.5-12.6a97.744,97.744,0,0,1-23.7-4.2c-15.3-4.8-27.9-13.8-36-27-10.5-17.7-11.4-42.9,2.7-75.3,26.4-62.1,71.7-99.6,120.6-121.2a294.047,294.047,0,0,1,66.6-20.7c-12.9-3-27-4.5-42-5.1-85.2-2.4-195,33.3-247.2,95.4-1.2,1.2-4.2.3-6.6-2.4-2.4-2.4-3.6-5.7-2.4-6.9,52.8-63,164.1-99,250.5-96.3,24.6.6,47.4,4.5,66.3,12C992.207-384.477,1036.608-380.577,1059.708-376.077Zm-112.2,9.3c-26.7,3.9-55.2,11.1-82.5,23.1-48.3,21.6-92.7,58.2-119.1,119.7-12.9,30.3-12.9,52.2-4.2,66.6,4.8,8.1,13.2,13.8,24.6,17.4,12.6,3.9,28.2,4.8,45,3,51.3-6.3,114.3-39.3,150-94.8,28.2-44.4,33.9-77.7,24.3-101.4-6-14.1-18.3-24.9-35.1-32.4A8.984,8.984,0,0,0,947.507-366.777Z" transform="translate(54 542)" fill="#19807a"/>
    <path id="Path_895" data-name="Path 895" d="M5-67.674v-3.837H20q15.07,0,15.07,11.791,0,4.954-3.767,10.675,6.628,2.721,6.628,11.93,0,8.233-4.151,11.337t-12.733,3.1H5v-3.837H9.535V-67.674ZM22.442-46.6H14.279v20.093H20.7a31.867,31.867,0,0,0,5.233-.349,11.553,11.553,0,0,0,3.837-1.4q3.419-1.884,3.419-8.581,0-5.3-2.686-7.535T22.442-46.6Zm.349-3.837a30.937,30.937,0,0,1,4.465.279,17.127,17.127,0,0,0,3.07-9.14q0-8.372-10.675-8.372H14.279v17.233ZM68.559-54.07v-3.488H81.4v3.488H77.21l-13.884,31.4L61.024-8.79h5.861V-5.3H52.163V-8.79h4.326l2.163-13.884H57.466l-11.3-31.4H41.419v-3.488H56.14v3.488H51.326l9.209,28.117L72.4-54.07Zm39.977-13.6v-3.837h14.093v3.837h-5.023v41.163h17.721l1.047-8.721,3.419.349-.767,8.372h.07l-.07.14-.279,3.7-.7-.07v.07H108.536v-3.837h4.326V-67.674Zm45.28,45.279q-9.279,0-9.837-7.326a6.9,6.9,0,0,1-.07-.977q0-5.861,7.047-7.814a139.232,139.232,0,0,1,15.07-2.233v-5.372q0-7.6-7.954-7.6a33.7,33.7,0,0,0-12.14,2.651l-1.186-3,.7-.279a39.9,39.9,0,0,1,8.3-2.86,33.111,33.111,0,0,1,4.186-.523q1.326-.035,2.547.035a15.336,15.336,0,0,1,3.174.628,11.078,11.078,0,0,1,3.384,1.57,8.268,8.268,0,0,1,2.477,3.035,10.354,10.354,0,0,1,1.047,4.814v21.489h5.372v3.488h-9.209l-.7-2.651A28.779,28.779,0,0,1,153.815-22.395Zm1.256-3.209a28.223,28.223,0,0,0,10.954-2.372v-9.977q-10.465.349-13.535,1.4a5.226,5.226,0,0,0-3.349,2.267,5.628,5.628,0,0,0-.977,2.616v1.326a4.3,4.3,0,0,0,2.163,3.628A9.421,9.421,0,0,0,155.071-25.6ZM204.4-26.72q-6.349,4.256-12,4.256a16.49,16.49,0,0,1-5.581-1.186,6.407,6.407,0,0,1-3.349-2.9,10.361,10.361,0,0,1-1.256-5.337V-54.07h-4.884v-3.488h9.419v24.279a7.093,7.093,0,0,0,1.047,4.012,4.852,4.852,0,0,0,2.651,2.058,11.584,11.584,0,0,0,4.256.7,22.07,22.07,0,0,0,9.7-3V-54.07h-4.884v-3.488h9.419v31.4H214.3v3.488h-9.209Zm22.326.558h5.791v3.488H217.863v-3.488h4.326V-54.07h-4.674v-3.488h9.209v8.442q5.512-8.093,10.814-8.233h.837l3.907.488-1.814,4.186a8.016,8.016,0,0,0-3.419-.628q-5.023.07-10.326,7.256Zm29.651,3.767q-9.279,0-9.837-7.326a6.9,6.9,0,0,1-.07-.977q0-5.861,7.047-7.814a139.235,139.235,0,0,1,15.07-2.233v-5.372q0-7.6-7.954-7.6a33.7,33.7,0,0,0-12.14,2.651l-1.186-3,.7-.279a39.9,39.9,0,0,1,8.3-2.86,33.112,33.112,0,0,1,4.186-.523q1.326-.035,2.547.035a15.337,15.337,0,0,1,3.174.628A11.079,11.079,0,0,1,269.6-55.5a8.268,8.268,0,0,1,2.477,3.035,10.355,10.355,0,0,1,1.047,4.814v21.489h5.372v3.488h-9.209l-.7-2.651A28.779,28.779,0,0,1,256.375-22.395ZM257.63-25.6a28.223,28.223,0,0,0,10.954-2.372v-9.977q-10.465.349-13.535,1.4A5.226,5.226,0,0,0,251.7-34.29a5.628,5.628,0,0,0-.977,2.616v1.326a4.3,4.3,0,0,0,2.163,3.628A9.421,9.421,0,0,0,257.63-25.6Zm47.3-21.349q0-11.372,5.9-18.1a18.728,18.728,0,0,1,14.686-6.733q20.582,0,20.582,24.837,0,10.675-5.268,17.233a18.651,18.651,0,0,1-13.43,7.256q1.954,6.907,11.023,13.326l-4.116.419a38.626,38.626,0,0,1-6.837-6.07,19.933,19.933,0,0,1-4.535-7.744Q304.933-23.93,304.933-46.953Zm4.744-.14q0,20.512,15.837,20.512a14.1,14.1,0,0,0,11.337-5.442q4.5-5.442,4.5-15.07,0-20.512-15.837-20.512a14.068,14.068,0,0,0-11.337,5.477Q309.677-56.651,309.677-47.093ZM379.445-26.72q-6.349,4.256-12,4.256a16.49,16.49,0,0,1-5.581-1.186,6.407,6.407,0,0,1-3.349-2.9,10.361,10.361,0,0,1-1.256-5.337V-54.07h-4.884v-3.488h9.419v24.279a7.093,7.093,0,0,0,1.047,4.012,4.852,4.852,0,0,0,2.651,2.058,11.584,11.584,0,0,0,4.256.7,22.07,22.07,0,0,0,9.7-3V-54.07h-4.884v-3.488h9.419v31.4h5.372v3.488h-9.209ZM397.515-38.3q0,6.209,3.558,9.035a12.96,12.96,0,0,0,8.3,2.826,35.086,35.086,0,0,0,6.314-.593,21.2,21.2,0,0,0,4.291-1.081l.907,3.279a15.433,15.433,0,0,1-5.267,1.744,36.036,36.036,0,0,1-6.7.7,21.6,21.6,0,0,1-5.442-.628,17.31,17.31,0,0,1-4.919-2.233,10.751,10.751,0,0,1-3.977-5.023,21.251,21.251,0,0,1-1.465-8.372q0-9.209,4.744-14.093a15.586,15.586,0,0,1,11.512-5.093q6.558,0,10.012,3.628t3.453,10.186a23.27,23.27,0,0,1-.209,3H397.725A19.323,19.323,0,0,0,397.515-38.3Zm21.14-6.209a8.528,8.528,0,0,0-2.581-6.663,8.664,8.664,0,0,0-6-2.337,10.994,10.994,0,0,0-7.744,2.826,13.877,13.877,0,0,0-4.116,6.942h20.442Zm13.116,17.3a16.863,16.863,0,0,0,4.709.907q1.779,0,2.337-.07a12.082,12.082,0,0,0,6.07-1.535,4.57,4.57,0,0,0,2.442-4.116,4.88,4.88,0,0,0-1.919-4.116,13.673,13.673,0,0,0-4.64-2.233q-2.721-.767-5.442-1.674a11.485,11.485,0,0,1-4.64-2.86A6.958,6.958,0,0,1,428.772-48a8.637,8.637,0,0,1,3.419-7.151,13.576,13.576,0,0,1,8.651-2.686,23.7,23.7,0,0,1,7.884,1.4l1.256.488v8.023l-3.419.488-.279-5.93a32.486,32.486,0,0,0-4.674-.419,10.753,10.753,0,0,0-6.07,1.5,4.478,4.478,0,0,0-2.233,3.837,4.212,4.212,0,0,0,1.919,3.663,15.512,15.512,0,0,0,4.64,2.093q2.721.767,5.442,1.709a10.986,10.986,0,0,1,4.64,3.07,7.967,7.967,0,0,1,1.919,5.547,8.745,8.745,0,0,1-3.453,7.291q-3.454,2.686-9.8,2.686a17.632,17.632,0,0,1-10.535-3v-8.023l3.349-.488Zm35.582,4.814q-9.279,0-9.837-7.326a6.9,6.9,0,0,1-.07-.977q0-5.861,7.047-7.814a139.234,139.234,0,0,1,15.07-2.233v-5.372q0-7.6-7.954-7.6a33.7,33.7,0,0,0-12.14,2.651l-1.186-3,.7-.279a39.9,39.9,0,0,1,8.3-2.86,33.112,33.112,0,0,1,4.186-.523q1.326-.035,2.547.035a15.336,15.336,0,0,1,3.174.628,11.079,11.079,0,0,1,3.384,1.57,8.269,8.269,0,0,1,2.477,3.035,10.354,10.354,0,0,1,1.047,4.814v21.489h5.372v3.488H480.26l-.7-2.651A28.779,28.779,0,0,1,467.353-22.395Zm1.256-3.209a28.223,28.223,0,0,0,10.954-2.372v-9.977q-10.465.349-13.535,1.4a5.226,5.226,0,0,0-3.349,2.267,5.628,5.628,0,0,0-.977,2.616v1.326a4.3,4.3,0,0,0,2.163,3.628A9.421,9.421,0,0,0,468.609-25.6Zm29.442.349a11.126,11.126,0,0,1-3.942-5.058,21.068,21.068,0,0,1-1.5-8.407q0-9.14,4.674-13.954a15.275,15.275,0,0,1,11.3-5.163,17.7,17.7,0,0,1,7.954,2.023v-15.7h-4.674V-75h9.209v48.838h5.372v3.488h-9.209l-.558-2.233a16.749,16.749,0,0,1-9.14,2.512A16.849,16.849,0,0,1,498.051-25.255Zm18.489-3.07V-52.814a20.872,20.872,0,0,0-6.07-.977,12.569,12.569,0,0,0-9.663,3.942q-3.663,3.942-3.663,11.058a16.725,16.725,0,0,0,1.081,6.384,8.479,8.479,0,0,0,2.9,3.872,12.9,12.9,0,0,0,7.326,2.093A18.425,18.425,0,0,0,516.54-28.325Zm23.233,5.93q-9.279,0-9.837-7.326a6.9,6.9,0,0,1-.07-.977q0-5.861,7.047-7.814a139.234,139.234,0,0,1,15.07-2.233v-5.372q0-7.6-7.954-7.6a33.7,33.7,0,0,0-12.14,2.651l-1.186-3,.7-.279a39.9,39.9,0,0,1,8.3-2.86,33.111,33.111,0,0,1,4.186-.523q1.326-.035,2.547.035a15.336,15.336,0,0,1,3.174.628,11.079,11.079,0,0,1,3.384,1.57,8.268,8.268,0,0,1,2.477,3.035,10.354,10.354,0,0,1,1.047,4.814v21.489h5.372v3.488H552.68l-.7-2.651A28.779,28.779,0,0,1,539.773-22.395Zm1.256-3.209a28.223,28.223,0,0,0,10.954-2.372v-9.977q-10.465.349-13.535,1.4A5.226,5.226,0,0,0,535.1-34.29a5.628,5.628,0,0,0-.977,2.616v1.326a4.3,4.3,0,0,0,2.163,3.628A9.421,9.421,0,0,0,541.028-25.6Z" transform="translate(258.702 568.77)" fill="#969696"/>
    <path id="Path_894" data-name="Path 894" d="M37.817-29.946c1.674-1.459,1.674-1.459,9.07-7.994,6.837-6.01,11.3-10.853,14.791-16.046,3-4.434,4.256-8.11,4.256-12.486,0-5.6-2.233-9.861-6.488-12.311A16.92,16.92,0,0,0,51.142-81a19.486,19.486,0,0,0-7.116,1.342,9.959,9.959,0,0,0-5.233,6.71c-.349,1.75-.558,2.1-.977,2.1s-.488-.175-.977-2.1A10.231,10.231,0,0,0,32.1-79.425,13.657,13.657,0,0,0,25.049-81c-5.233,0-9.07,1.575-11.861,4.843A15.391,15.391,0,0,0,9.7-66.588c0,5.718,3.419,12.486,10.256,20.013C24.561-41.44,25.816-40.273,37.817-29.946Z" transform="translate(841.24 575.693)" fill="#ef008b"/>
  </g>
</svg>
