<svg id="Flat_copy_5" xmlns="http://www.w3.org/2000/svg" width="60.973" height="60.973" viewBox="0 0 60.973 60.973">
  <g id="Group_13" data-name="Group 13" transform="translate(0 0)">
    <path id="Path_7" data-name="Path 7" d="M30.486.016A30.486,30.486,0,1,0,60.973,30.5,30.485,30.485,0,0,0,30.486.016Z" transform="translate(0 -0.016)" fill="#4f9a30"/>
  </g>
  <path id="Path_8" data-name="Path 8" d="M38.5,18.642c0,8.875-4.935,15.508-12.208,15.508-2.445,0-4.741-1.32-5.528-2.822,0,0-1.315,5.213-1.591,6.219a24.14,24.14,0,0,1-4.085,7.4.3.3,0,0,1-.537-.13,25.369,25.369,0,0,1,.069-8.6c.434-1.837,2.91-12.33,2.91-12.33a8.7,8.7,0,0,1-.722-3.58c0-3.354,1.944-5.857,4.363-5.857,2.058,0,3.051,1.543,3.051,3.4,0,2.069-1.317,5.164-2,8.029a3.5,3.5,0,0,0,3.571,4.36c4.287,0,7.174-5.507,7.174-12.031,0-4.958-3.338-8.672-9.415-8.672A10.715,10.715,0,0,0,12.413,20.374a6.525,6.525,0,0,0,1.494,4.438,1.1,1.1,0,0,1,.324,1.261c-.111.417-.356,1.418-.463,1.816a.779.779,0,0,1-1.132.566C9.475,27.165,8,23.7,8,19.81,8,13.383,13.423,5.676,24.173,5.676,32.814,5.682,38.5,11.931,38.5,18.642Z" transform="translate(7.245 5.109)" fill="#fff"/>
</svg>
